<svg xmlns="http://www.w3.org/2000/svg" width="740" height="680.397" viewBox="0 0 740 680.397">
  <g>
    <g transform="matrix(-1 0 0 1 740 0)">
      <path fill="rgb(242,242,242)" fill-rule="evenodd" d="M53.81127774 519.87458996c16.30628181-83.97333842 181.30649755-36.13492607 289.4787915-62.09544879 108.17229396-25.96052272 236.14912926-146.8639099 320.84645095-87.63936635 84.69732168 59.22454354-5.41965601 202.38742647-199.67900299 234.69452996-194.25934697 32.3071035-426.95252127-.9863764-410.64623946-84.95971482z"/>
      <g opacity=".5" transform="translate(95 125)">
        <path fill="rgb(137,197,204)" fill-rule="evenodd" d="M1.90802857 2.6723177c-1.573 1.57047918-.962 7.15198438-.99496428 9.21752605-.05060715 3.21558854.1495 6.4024375.41832142 9.6064375.18014286 2.14527083 1.19553572 22.61758854 4.02117858 21.0452552 1.59296428-.88582812.59428571-6.80803645.5915-8.68120833-.0065-4.16445833-.17967858-8.31871875-.45732143-12.47390625C5.2286 17.52882812 5.06656429 13.71619792 5.2151357 9.8511875c.03621429-.9433073.91882143-11.41239583-3.30710714-7.1788698"/>
        <path fill="rgb(137,197,204)" fill-rule="evenodd" d="M70.40943929.14865781c-13.5135.10754167-27.02142858.77411459-40.52842858 1.1824948-6.49953571.19654166-12.99489285.44639062-19.48746428.8065625-2.21232143.12283854-6.95732143-.58545313-8.80053572.59333333-4.09175 2.61715625 2.50714286 3.22903125 4.26632143 3.1650625 26.73032143-.96926563 53.46992857-2.24585938 80.223-2.3061198 13.1235-.02920312 26.2405.34441146 39.36539286.26051042 5.01707143-.03198437 10.57271429-2.19347916 11.83975 3.64621875 1.43 6.58970834-.21310714 13.92664584-.66021429 20.54833854-.29853571 4.42033334-.19221428 8.74888542.00696429 13.16551042.12767857 2.82945833-.20475 6.01769792.29528571 8.7943125.48146429 2.67370833 2.40360715 4.27709896 4.16557143 1.28215625 1.05253572-1.78973437.52882143-6.20867708.59892857-8.28209896.09425-2.792375.00557143-5.58382291.00557143-8.37666146-.00092857-6.81684375.96153572-13.60680208.83432143-20.4222552-.08171428-4.39483855-.31525-12.36219271-5.85835714-13.41814063C130.57158214-.37514427 123.068725.79437135 116.822225.72298594 101.34433214.54637656 85.89243929.02767344 70.40943929.1486578"/>
        <path fill="rgb(137,197,204)" fill-rule="evenodd" d="M33.17363214 42.78610104c-5.09553571 0-10.19153571.03059375-15.28660714.11495833-4.36985714.0723125-11.24035714-.83854687-15.3075.72497917-2.78432143 1.07031771-3.52392857 4.17882813 0 5.00671354 3.84335714.90344271 9.63578571-.57340104 13.65696429-.64432291 20.16392857-.356 40.52192857-.82000521 60.65753571.45519791 18.86764286 1.19454688 38.09882143 2.3529375 56.99432143 1.09210417 1.58971428-.10615104 9.698-.42877604 5.99810714-3.46821875-2.15846428-1.77397396-10.907-.60723958-13.71221428-.6920677-9.89439286-.29852084-19.79853572-.3648073-29.68967858-.7398125-9.76207142-.3703698-19.48096428-1.46803647-29.24628571-1.73967188-11.34528571-.31567188-22.71564286-.10985938-34.06464286-.10985938"/>
        <path fill="rgb(137,197,204)" fill-rule="evenodd" d="M16.23927498 15.7007122c2.55449867-2.96249485 4.25099945-4.59972381 7.96807098-6.05107307 7.2363577-2.8303852 17.84482098 4.56681251 19.43268109 11.72064972 1.57717514 7.1065607-3.51464463 13.64203358-10.32292939 15.11377811-7.81578731 1.68960953-18.49343013-1.32758331-20.03114414-10.27671814-.07083511-.41221237-.05881405-.86474228-.04688454-1.3137865.01317025-.49573708.026227-.9872284-.07243728-1.41554833-.13603592-.59055137-.92392826-1.26454162-.92810726-1.8778057-.01454068-2.01797486 1.17682457-3.13837815 2.50811767-4.39037514.49651432-.46693993 1.01249123-.95218277 1.49263287-1.50912095zm19.59982204 15.53467083c8.03585816-5.56666946.1782837-17.08475399-7.76378727-17.43148326-.79777336.62671852-1.06233024.49163818-1.34329605.34818077-.18390846-.09390164-.3748455-.1913929-.7269516-.08118058-1.3557148.42460442-2.52664375 1.35725022-3.65114402 2.2046032-.9824276.74027634-2.41382027 1.78000069-3.21100045 2.71913719-.00452423.0053711-.10247993.2211914-.23334312.50951195-.2885952.63584137-.7372303 1.62428474-.6967125 1.4857273.03929139-.1054859.08057976-.21146964.12389374-.31794356.00854874-.02090073.01757431-.04290009.02709198-.06602479-.00911712.02202988-.01814842.04403687-.02709198.06602479-.07585907.18545913-.11411667.28450965-.12389374.31794357-3.68303966 9.88812733 10.18342495 15.40232181 17.62623501 10.24550342z"/>
        <path fill="rgb(137,197,204)" fill-rule="evenodd" d="M20.89633929 22.1426901c0 3.21929688 5.08532142 3.21929688 5.08532142 0 0-3.18267708-5.08532142-3.31942187-5.08532142 0"/>
        <path fill="rgb(137,197,204)" fill-rule="evenodd" d="M27.25849286 21.49104323c0 2.55828646 4.04067857 2.55828646 4.04067857 0 0-2.52908333-4.04067857-2.63708854-4.04067857 0"/>
        <path fill="rgb(137,197,204)" fill-rule="evenodd" d="M28.50969643 26.76675c-1.29396429.4973802-2.93521429-.534-3.9975.14555208-1.88128572 1.20428125.00464286 2.29406771 1.01307143 2.77800521 4.54025 2.17864583 5.34810714-3.82885417 2.98442857-2.92355729"/>
        <path fill="rgb(137,197,204)" fill-rule="evenodd" d="M74.16977692 18.4319458c1.2756424-.69211197 2.54945373-1.38323402 3.90776062-1.689888 3.3854599-.75928688 6.07667541.59150124 8.74497986 1.93078995 2.9337921 1.4725399 5.83987426 2.93117523 9.61055755 1.55597114 2.19838715-.80192756 4.37031555-2.4780941 6.7558136-2.63384437 2.30316162-.15013314 4.22999573 1.08701134 6.11885834 2.29977798.71217346.45725823 1.41895294.9110508 2.13846588 1.28571701 1.02189636.53214646 2.65525055.28415108 2.8144989 1.74801636.17897034 1.64273262-1.2269516 1.48341179-2.3736496 1.35346794-.12947082-.01467132-.25563812-.0289688-.37584686-.0402546-2.87393188-.27070998-4.868042-3.1863861-7.66210938-3.4793434-1.66934204-.17496682-3.58100128.75049972-5.44763946 1.6541729-1.32308197.64052581-2.62354279 1.27010154-3.79907227 1.4891033-3.01971435.56320191-5.50504303-.32540702-8.14403534-1.69007491-.22522735-.11647606-.44519805-.23146057-.66078949-.34415436-2.9847412-1.56017303-5.12875366-2.6808815-8.71407318-1.23003197-.87998962.35604477-1.71232605.7608719-2.5282898 1.15773583-2.46447753 1.1986599-4.77957915 2.32466888-7.80717467 1.81449318-.93857575-.1580925-2.00449372-.73004723-3.08089829-1.30762863-1.40114212-.75183106-2.82004928-1.51319695-3.9989891-1.3836937-1.17647553.12933731-2.15751648 1.28737068-3.1485672 2.45721054-1.22888565 1.45058823-2.47315216 2.9193325-4.12446976 2.46745491-5.11271668-1.39850426 4.61174774-9.5494213 8.18489075-9.04137993 2.79314422.39679146 4.70878982 3.12705231 7.53814315 3.45245934 2.21621705.254879 4.13598633-.78671456 6.05163575-1.8260765z"/>
        <path fill="rgb(105,161,172)" fill-rule="evenodd" d="M84.09249643 63.1111052c-13.88864286.12747397-27.82417857.33375-41.67382143 1.4471771-3.28342857.2637552-36.81042857 3.42928124-36.74682143 3.65734374.11746429.42182292 4.42975 1.06614584 4.40282143 1.1658073-.29064286-.7208073-.95503571-1.01932813-1.99271429-.89463542 31.79753572 0 63.49432143-2.84707292 95.33364286-2.33485938 8.00010714.12840104 16.03039286.07463021 24.02492857.32679688 1.99596429.06304166 6.94107143 1.49353125 8.5085.59240625 4.11357143-2.36545313-3.35957143-2.63847917-4.59735714-2.73767709-15.66871429-1.25341666-31.54635714-1.37903645-47.25917857-1.22235937"/>
        <path fill="rgb(105,161,172)" fill-rule="evenodd" d="M1.55572857 69.85915937c-2.07628571 2.08176563-.16435714 9.5707448-.08264286 12.3853698.11839286 4.06943229.02089286 8.16760416.37792858 12.226375.40764285 4.63634375 1.04 9.57584375 2.25642857 14.07405208.66996428 2.47809375 3.02157143 6.41634375 3.95339285 1.9135.66532143-3.21605208-.34496428-7.48248958-.69642857-10.75880208-.47032143-4.38278646-.58407143-8.70809375-.60171428-13.11220313-.01578572-3.83766146-.08960715-7.69108333-.40439286-11.5166927-.16342857-1.98627605-1.16257143-8.83232292-4.80257143-5.21159897"/>
        <path fill="rgb(105,161,172)" fill-rule="evenodd" d="M53.794 107.9981625c-9.85585714.1691927-19.73307143.40142708-29.57221429 1.01701042-4.03278571.2526302-8.06232142.6285625-12.08025 1.05502083-.81992857.0866823-9.89485714.45519792-5.83978571 3.80428646 1.83021429 1.51207291 9.35907143-.5785 11.84578571-.79636459 4.18228572-.36666145 8.36364286-.60492187 12.558-.78245833 9.71842858-.41255208 19.46657143-.77689583 29.19475-.60816667 17.76635715.30825521 35.4185.44592709 53.18996429.04959896 2.52478571-.05608854 22.30567857.47234896 22.9775-2.15454166.54135714-2.1169948-6.5325-1.145875-7.82228571-1.10740105-4.73153572.14138021-9.46353572.10846875-14.19692858.08436459-20.05110714-.10290625-40.21875-.90019792-60.25453571-.56134896"/>
        <path fill="rgb(105,161,172)" fill-rule="evenodd" d="M132.71871786 66.34662604c.31292857 8.7753073 1.80746428 17.54041667 2.28521428 26.34214584.21821429 4.02354166.47542857 8.043375.67228572 12.06830729.06360714 1.2983802-.45964286 4.42682291 1.07575 5.17358854 2.106 1.02442708 2.38967857-1.03972396 2.78385714-2.43591146 1.13889286-4.0328125.36864286-9.27129687.26510714-13.4135052-.09982143-4.0114896-.10678571-8.0299323-.40253571-12.03400522-.30317857-4.0907552-1.12682143-8.10409895-1.50892857-12.18048437-.16157143-1.72391146.40346428-4.59277083-1.42675-5.662625-1.58182143-.92476563-3.81225.24057812-3.744 2.14248958"/>
        <path fill="rgb(105,161,172)" fill-rule="evenodd" d="M13.12712097 91.51841736c-.0701065-7.65585327 6.4628563-16.75099945 14.56185723-17.15428162 7.78839302-.40467071 16.27089118 6.0663681 18.08067321 13.66103363 2.25875092 9.47896576-6.1466732 15.29919434-14.57578087 15.22688294-7.46849823-.06443024-17.98224926-2.45491791-18.06674957-11.73363495zm14.34178543-13.1743164c3.12325096.89231872 5.68842697.55949401 8.6719284 2.83316802 2.47325135 1.8852234 5.01010896 4.64329529 5.83050156 7.69154358 1.89521409 7.04259491-4.53003692 10.90203858-10.55368042 10.97805786-6.16989135.07741547-15.30239105-1.35353851-14.98621368-9.26202392.24235725-6.07610321 4.67907143-12.00480652 11.03746414-12.24074555zm8.37571717 2.6000061c.03760528.02873992.07474899.05794525.1118927.08715057-.03714371-.02920532-.074749-.05794525-.1118927-.08715057z"/>
        <path fill="rgb(105,161,172)" fill-rule="evenodd" d="M19.54225 86.8223276c0 2.58748959 4.08803571 2.58748959 4.08803571 0 0-2.55782291-4.08803571-2.66768229-4.08803571 0"/>
        <path fill="rgb(105,161,172)" fill-rule="evenodd" d="M28.11705 85.68702135c0 2.60788542 4.12053571 2.60788542 4.12053571 0 0-2.57821875-4.12053571-2.6890052-4.12053571 0"/>
        <path fill="rgb(105,161,172)" fill-rule="evenodd" d="M23.38983214 91.58860208c-2.66082143 2.6565573 6.68664286 7.31376042 8.89107143 3.61794271 1.81071429-3.03527083-2.13153571-2.02892187-3.52903571-2.19301562-1.51867857-.17892709-4.12239286-2.66119271-5.36203572-1.42492709"/>
        <path fill="rgb(105,161,172)" fill-rule="evenodd" d="M51.36666489 88.10035706c.11932373-3.19658661 8.96117782-6.17947388 11.65542984-6.68473816 2.82831573-.52979279 5.06918335.59592437 7.32234954 1.72782135 2.35394288 1.18253326 4.72131348 2.37180328 7.7859726 1.68709564 2.6194992-.58545685 5.0449295-2.09799194 7.72850037-2.3371811 2.37780761-.21198272 3.70087432.61001588 5.20488739 1.54442597.74549865.46316528 1.53546142.9539566 2.52036285 1.36013031 1.202034.49610901 2.14473724.3770218 3.13656616.25172424.57617188-.07278442 1.16892243-.1476593 1.8387146-.1052475 3.01554108.19097901 3.08332825 2.21711732.39697266 3.53125764-3.12800598 1.53051757-5.13199616.34255218-7.23799133-.9058838-1.31279755-.77822875-2.66523743-1.57994842-4.35429383-1.76132964-2.13613891-.22949982-4.24630737.64528656-6.3910141 1.5343933-2.07019806.85821534-4.1725769 1.72977448-6.36152649 1.63437653-2.09651947-.0912857-3.78450775-.85214996-5.39621734-1.57862854-2.33299256-1.05160522-4.50614166-2.03115081-7.5271759-.80351257-.33242417.13513184-.87672425.43237305-1.54639054.79806519-3.11826706 1.70285797-8.95478058 4.89011383-8.77514648.10723114z"/>
        <path fill="rgb(105,161,172)" fill-rule="evenodd" d="M121.52204895 91.31542969c-6.05335236 5.11333465-14.35339355-7.47182465-6.64021301-10.98871613 2.01546478-.92059326 5.55982208.902977 7.04460907 2.24632263 2.47789001 2.2416916 2.1426773 6.59063721-.40439606 8.7423935zm-5.04586029-7.3411026c.59893036.35831451 5.41403961 3.65085602 1.91657257 4.42636108-1.77542877.39354706-3.24443054-3.17897034-1.91657257-4.42636108zm3.02111053 1.86946106c.01486206.00649261.07312775.08019256.09854126.1154251.02542115.03523255.01799012.03198243-.09854126-.1154251z"/>
        <path fill="rgb(137,197,204)" fill-rule="evenodd" d="M42.47680357 129.92085573c-9.62464286.00278125-19.33378571-.19932292-28.94542857.37129687-1.61757143.09595313-7.77957143-.21183854-8.61296429 1.47916146-1.52471428 3.09275 4.81557143 1.5575 5.73671429 1.46479167 19.13785714-1.9158177 39.12907143-.81351563 58.33007143-.26746354 15.70353571.44639062 31.32303571.72358854 47.008 1.53293229 4.12285714.21276562 8.242.44778125 12.36207143.69623958 1.34271428.0811198 4.72225.9711198 5.00546428-1.1736875.26185715-1.98488541-3.95385714-1.53664062-5.00685714-1.59226562-8.37478571-.44082813-16.744-.90251563-25.11646429-1.3739375-20.15232142-1.13614063-40.57625-1.14077604-60.76060714-1.13706771"/>
        <path fill="rgb(137,197,204)" fill-rule="evenodd" d="M4.60938214 133.36005677c-1.79771428 1.78695313-.95503571 8.61075-1.00517857 10.86634375-.08775 3.94473958-.27392857 7.88623438-.3575 11.83004688-.08682143 4.1218125.03389286 8.2626302.27764286 12.37841666.10214286 1.72808334 1.52053571 10.08017709 3.75375 5.30059896.99775-2.136-.02414286-8.08509375-.00882143-10.5052448.02739286-4.4045729.26464286-8.79060416.48378571-13.18915103.1885-3.78110938.19546429-7.56592709.36075-11.34796354.05246429-1.20567188.195-9.04369792-3.50442857-5.33304688"/>
        <path fill="rgb(137,197,204)" fill-rule="evenodd" d="M134.97983571 168.59534219c-9.3665.95999479-18.88342857.5061875-28.28567857 1.21540625-8.10317857.61094791-16.19892857.86079687-24.323 1.03277083-18.39639285.38844792-36.82389285.76716146-55.16689285 2.30009375-4.18042858.34904688-8.35575.7198802-12.54732143.90715104-2.09625.09363542-10.89260715-.86033333-11.54771429 1.3493698-1.11567857 3.76349479 8.29121429 2.27413541 10.32014286 2.21526562 4.46178571-.12886458 8.90267857-.45148958 13.35192857-.79033854 18.70328571-1.42492709 37.47807143-1.85092188 56.22128571-2.44332813 10.19385715-.32169791 20.31667858-1.06753646 30.48778572-1.74616146 5.06953571-.33792187 10.153-.34904687 15.22207143-.67677083 1.32646428-.0857552 6.02132143.0834375 6.97542857-.98409896.65557143-.73285937.82132143-2.5221302-.70803572-2.37935937"/>
        <path fill="rgb(137,197,204)" fill-rule="evenodd" d="M131.80486429 134.00039323c.32128571 8.98251042.82875 17.95714062 1.13192857 26.93965104.09146428 2.7010573-.72475 7.54228646.77953571 9.92442708 2.41846429 3.8302448 4.30625-.22342708 4.74917857-2.61020312 1.39796429-7.53301563-.10492857-15.85451563-.49539285-23.43388542-.14857143-2.89157291.74935714-9.32738541-.64814286-11.91533854-1.33110714-2.46511458-5.63642857-2.21758333-5.51710714 1.09534896"/>
        <path fill="rgb(137,197,204)" fill-rule="evenodd" d="M114.51127625 143.66329956c.21151733.01191711.40262603.02268982.56300354.02770996 9.26667785-1.87503052 9.39807128 18.96395874-1.38728333 15.23614502-2.0437851-.70643616-3.72078705-2.61761475-4.34710693-4.65162659-.56663514-1.84068298-.0066681-3.1037445.56468963-4.39251709.3588791-.80947876.72224427-1.62908935.81377411-2.60835266.02205658-.2375946-.02713775-.57174682-.08123016-.93919372-.10758972-.73080445-.23456574-1.59329224.1411209-2.08959961.57578278-.7604065 2.50071717-.65197754 3.73303224-.5825653zm1.63179016 12.48121643c4.04904174-.57711792 3.5248642-8.37898254-.06360627-9.35102844-3.3275299 1.60848999-5.96327972 10.20996094.06360627 9.35102844z"/>
        <path fill="rgb(137,197,204)" fill-rule="evenodd" d="M14.58001137 139.98530579c2.16728401-2.65655518 4.56160545-4.86857605 8.21553612-4.98028565 11.75478458-.39401245 21.2429285 16.9313202 11.6795702 25.3353424-10.24725056 9.00521851-27.03303528-2.04005431-20.53535748-14.99002074-1.24057102.99012756-1.8297491-.30871582-2.05492783-1.1968689-.23035812-.90943909 1.2322321-2.53100586 2.15883064-3.55830383.21821213-.2419281.40669919-.45091248.53634835-.60986328zm8.17328453-1.58436585c-1.47921372.09965515-2.91896439.71617127-4.12610626 1.55888367 1.13007164-.95581055 2.6362152-1.52503967 4.12610626-1.55888367zm3.29271316 1.09997559c.0422516.36109924.08450127.72219848.12675095 1.08283996-.30657578 1.11433411-1.64328384 1.05773926-2.87927437 1.00541687-.62829399-.02661132-1.23054504-.05210876-1.65818977.07788086-2.72582054.82881165-4.83460617 4.29284668-5.52128601 6.87060547-1.48849964 5.58753967 1.14957237 10.1376648 6.6699295 11.57510376 4.9868927 1.2979126 10.33964253-.56690979 11.8211794-5.82487488 1.94164275-6.89193725-2.7114296-12.0265808-8.5591097-14.78697204z"/>
        <path fill="rgb(137,197,204)" fill-rule="evenodd" d="M19.47557857 147.03453594c0 1.724375 2.67707143 1.724375 2.67707143 0s-2.67707143-1.724375-2.67707143 0"/>
        <path fill="rgb(137,197,204)" fill-rule="evenodd" d="M24.04410357 147.32879219c0 1.75265104 2.72025 1.75265104 2.72025 0s-2.72025-1.75265104-2.72025 0"/>
        <path fill="rgb(137,197,204)" fill-rule="evenodd" d="M26.11727857 153.48360573c-1.27260714.1033698-5.93078571-.32911458-6.74839286.78570312-1.36639285 1.86251042.81435715 1.92740625 1.88546429 2.12858334.96478571.18124479 5.15867857.07880208 5.74971429-.77782292.52232142-.75696354.40021428-2.24585937-.88678572-2.13646354"/>
        <path fill="rgb(137,197,204)" fill-rule="evenodd" d="M56.60223007 149.88424683c2.74160767-.65821839 5.17028427-2.30751038 8.03771591-2.51841736 2.0986023-.15933228 4.02024842.5453186 5.9451828 1.25115967 1.16640473.42770385 2.33402253.85586547 3.5429535 1.09249878 2.90829467.56922912 5.18978881.06536865 7.90214538-.96925354 3.25231934-1.23997498 5.414505-1.66041565 8.82885742-.5817566.96803284.30593872 7.21315003 1.89588929 7.45968628 2.78495789.83584595 3.01605225-3.47937774 1.54882812-5.09152221 1.00068664-.07048798-.02397155-.13581086-.0461731-.19530488-.06617736-.49633789-.16688538-.97249603-.33880616-1.4357376-.50605774-2.43699646-.87989807-4.51621247-1.63059998-7.29237366-.83914185-.87551117.24967957-1.69274903.51927185-2.48226929.77972412-2.64620209.87290955-4.98108673 1.6431427-8.15544128 1.21720886-1.156456-.15505981-2.29042054-.5182495-3.4238968-.88128662-1.51270293-.48449707-3.02454376-.96870422-4.58781432-.95758056-3.27043152.0231781-6.04871369 2.17308044-9.17985917 2.85171509-1.82577133.39607238-3.43116378-.14868165-4.98139572-.6747284-1.38352966-.46946716-2.72312927-.92402649-4.13624572-.68159485-.6432953.11038208-1.5292244.97865296-2.4908867 1.92114258-1.90967178 1.8715973-4.11798476 4.03588867-5.31793594 1.13916016-.78789138-1.9028473 1.97785569-4.36842346 3.23839188-5.43966675 2.22485733-1.89031982 4.19389343-2.23797607 6.96196365-1.35818482.73994446.23526001 1.37207032.5050354 1.9620514.75682068 1.53157043.65364075 2.77914047 1.18608094 4.89173507.67877198z"/>
      </g>
      <g opacity=".5" transform="translate(287 64)">
        <path fill="rgb(105,161,172)" fill-rule="evenodd" d="M23.7559824 6.05099434C62.1205225 4.03336233 100.3055315.30368814 138.77863026.30368814c.3875885 0 .77656555-.0005261 1.166687-.00105375 5.01763917-.0067865 10.22450257-.01382888 15.11627198 1.09496167 1.23069763.27869368 1.87179566.42290974 2.89883423.53188324.31976318.0338993.6218872.01659703.91989136-.00046897.50912475-.02915716 1.00621032-.05762482 1.55867004.1711166 1.38285828.57176303 1.96549988 1.62532758 2.32130432 2.95387625.47579956 1.77710724.00976563 4.26552582-.42271423 6.57474518-.21685791 1.15794372-.42529297 2.27082824-.50228882 3.22637367-.3590393 4.46095467-.47409058 8.9195919-.46202087 13.39306831.00132751.5145836.0023651 1.02945328.0034027 1.54456139.01513673 7.5580635.03038026 15.16708755.99580384 22.66841125.89344788 6.93813324 2.10142517 13.7399292 2.4312439 20.74854279.19761657 4.19478607.28297424 8.39420319.52790832 12.58620453.02484131.42427063.02348328.8720398.02209473 1.32595825-.00280762.9193573-.00567627 1.86390686.20892334 2.6893692.2361145.90609741 1.04003906 1.0911255 1.16482544 1.5923996.65640258 2.6417923.22590637 3.01184082-2.43681336 3.76306152-6.47592163 1.82650757-13.89988708 1.7708664-20.76741028 1.71940613-1.1579895-.00868225-2.30015564-.01724243-3.41929626-.0166397-18.53699493.01020812-37.07445526.04266357-55.6054306.54858398-18.36535645.5017395-36.86014176.27359008-55.17725754 1.7829895-4.2130394.34732055-8.42051315.7818222-12.62844849 1.18247223-1.28700447.12239074-2.66175747.32472992-4.07016563.5320282-3.17006874.46658325-6.51063967.95825958-9.40488005.61985015-3.29307045-.38465118-2.9261483-1.4534912-2.33829743-3.16589355.17043561-.49647522.35944242-1.04705048.48320574-1.65073395.49581611-2.4162445.0785116-5.5011444-.31545639-8.41352844C.83631426 86.74615139.63209903 85.2365002.57823753 83.9053387c-.70882225-17.50531005-.4606417-35.01201248-.0635528-52.5219593.10530276-4.6329937.23983056-9.26506043.3678639-13.89759254.00865573-.31194115.019131-.62992478.0297259-.9515381.05470384-1.66056155.1125942-3.4178524-.0603426-4.93951987-.05449772-.47964955-.20158213-.82488632-.33070487-1.12796498C.2623665 9.85916466.07569502 9.42100757.85193193 8.40899414c1.26333773-1.6472063 5.0268265-1.5348792 8.0165459-1.44564629 1.13692664.03393364 2.16195678.06452704 2.89504813-.00625086 3.992692-.3853488 7.98584938-.69557523 11.99245644-.90610265zM6.00944853 34.1503796C5.674057 44.11286968 5.03760147 54.05542415 4.57464027 64.011887c9.96990014-6.10019683 18.98372555-13.6569252 28.94110012-19.8276062 6.70227051-4.15351104 13.83270264-8.39744568 21.55459595-10.34134674 10.54971695-2.6555748 21.07380295 6.08480835 28.84837723 12.54169846.19044495.1581688.37924194.3149681.56635284.47019577 4.25617981 3.53073883 8.39823914 7.18251037 12.78709412 10.5504837 2.84410095 2.18225098 5.6960907 4.40577316 8.71044159 6.3506012 3.4981842 2.25644302 4.679245 1.64387893 8.18578339-.6853714 6.19848632-4.11827087 11.99153137-8.59267426 19.73570251-9.23213959 7.59617615-.62740707 15.83021545 2.53374863 22.3473816 6.2087059-2.77822877-14.12991714-3.35066224-28.83901214-2.39041138-43.1864109.16282653-2.4326582.42677307-4.8616066.70974731-7.28220844.02624512-.22482586.1049347-.57894707.1951294-.98480702.22065734-.99294948.51013183-2.29558754.26875305-2.7722268-.6210785-1.22632266-3.19519043-1.16129351-5.23612976-1.10973407-.54599.013793-1.0538025.02662182-1.47587586.01350737-6.83528137-.21248102-13.6915741.00036573-20.53646088.2128582-2.19275665.06807184-4.38433837.13610697-6.57368469.19011164-20.30580902.49988651-40.6598587 1.61512565-60.90813827 3.23025226C43.514863 9.69766468 26.67940998 10.18827671 9.91028976 11.66846031c-3.36045503.29641247-3.36258316.57207107-3.38361454 3.29608631-.00249385.32297611-.00525331.68037033-.01390743 1.07629967-.02458572 1.09947395-.0533471 2.1984806-.08118057 3.29795265-.12571335 4.9376564-.25606632 9.87485123-.4221387 14.81158066z"/>
        <path fill="rgb(137,197,204)" fill-rule="evenodd" d="M117.48723694 19.35243292c-.00278333 2.7883292-.4379111 6.9028885.847525 9.5284531 1.63056945 3.33041416 3.6702889 2.2893699 4.21071945-.84025487.30941389-1.79319292.30199167-7.09996814-.27415833-8.68819823-.81505278-2.24809911-4.78408612-3.77929204-4.78408612 0"/>
        <path fill="rgb(137,197,204)" fill-rule="evenodd" d="M122.16551 20.42909062c-2.617725.09227965-10.241275-.53605664-12.01240278 1.56875398-3.03800833 3.6100354 2.2507889 4.24950089 4.521525 4.04732036 2.62793056-.23371328 10.74830556.3366584 12.5083-1.7704708 2.9438389-3.52517522-2.95914722-3.92072566-5.01742222-3.84560354"/>
        <path fill="rgb(137,197,204)" fill-rule="evenodd" d="M5.78348875 124.54761505c-2.56623363-7.06472778 2.5504613-15.16400146 10.0348444-16.42391968 6.519495-1.0976181 14.10546875 1.49084473 16.43419266 8.2133484 2.22852325 6.4340744-1.06926537 15.229393-7.67968178 17.56790923-6.924469 2.44935608-16.31404448-2.54162597-18.78935528-9.35733795zm11.83797932 4.51288605c10.889328 4.06401062 14.46962356-13.48210144 2.96146774-15.48118591-3.57704735-.34314728-8.68260908 1.54974365-10.24916124 5.15189361-2.09724236 4.82126618 3.493546 8.9131012 7.2876935 10.3292923z"/>
        <path fill="rgb(137,197,204)" fill-rule="evenodd" d="M85.81638278 115.63163646c-2.86497778.23788673-5.34121667 2.24392566-8.22428611 2.59913274-2.69565834.33202124-4.92974723-.5903115-7.45376667-1.32762124-3.05099722-.8908-5.849175-1.2826407-8.96697222-.4910761-2.38253334.60515044-4.73259445 2.22630442-7.20744167 2.42199292-4.86990555.38442124-10.52981389-5.17183363-14.33184722 1.11245664-1.82261945 3.01276814.82386667 4.953423 3.55014167 3.54836106 2.84224722-1.4644177 1.44686944-1.98888142 4.972425-1.12358584 2.94151944.72107964 5.31895 1.11292035 8.26557222.1020177 2.66921666-.915377 5.01231944-2.59078584 7.91301666-2.77905487 2.84039167-.18409558 5.31152778 1.10967434 8.02666945 1.66798938 3.33907222.68630088 6.29358055.16693805 9.45730278-.8796708 3.00924722-.9956 4.20979166-1.54000354 7.24640833-.65198584 1.92281944.5624885 6.12333333 2.34918938 7.99466111.90934867 3.23608889-2.48923185-1.09616944-2.85324955-2.80235278-3.20706548-2.7466861-.56898053-5.58893333-2.1344885-8.43953055-1.90123894"/>
        <path fill="rgb(137,197,204)" fill-rule="evenodd" d="M153.5621643 127.32286835c-12.75834655 2.1539688-18.80467223-16.49347687-5.57780456-20.1869812 1.61619568-.45027161 5.66223145 1.4565277 7.07662964 2.36263275 1.91725159 1.22838592 3.52137756 3.02806854 4.34385681 5.1625595 1.91586304 4.9696579-.04824829 11.68334199-5.84268188 12.66178895zm-4.99098205-13.9518509c4.18287659.26941682 8.70625305 7.88921357 3.16371155 8.15956116-3.90130615.1905899-8.26556397-6.4818344-3.16371155-8.15956115z"/>
        <path fill="rgb(105,161,172)" fill-rule="evenodd" d="M57.29543471 146.8928833c21.30966187-.3635559 42.59102631-1.53721619 63.91043091-1.73475647 6.31445313-.0584259 12.59412384.05192566 18.89929962.41363525 2.79632569.16044617 5.59124756.31532288 8.38943482.4335785.48214721.0204773 1.14898681-.01231385 1.8855896-.04853821 1.73190307-.08517456 3.8469696-.18919373 4.84172058.33695984 5.56620788 2.9446106-5.77355957 3.26734924-7.15223694 3.24417114-5.78469849-.0973816-11.55825806-.5476532-17.34248352-.68955994-17.30701447-.42514038-34.71901703.35237122-52.05521393 1.12651062l-.0009079.00004578c-3.97410583.17747498-7.94420623.35475159-11.90812683.51733398-10.22503662.41966248-20.44451141.47947693-30.66583633 1.05355835-5.58661843.31393433-11.17045021.67285157-16.7579918.96731568-2.5759735.13586426-5.1528778.26756286-7.73256397.33248901-.46444034.01179505-1.0696001.07635498-1.7302084.14685059-1.59951305.1706543-3.52361583.37594604-4.56290745-.04901123-1.2506442-.51147461-2.26192212-1.22653199-1.57443881-2.74195862.58158278-1.28112793 2.69459438-1.1275177 4.23529434-1.01551819.42062378.03057861.79858685.05804443 1.0910778.05238342 4.92371655-.09553528 9.83676339-.37190246 14.75166703-.67286682 11.1597786-.68304443 22.29589462-1.48202515 33.47840118-1.67262268zm93.2232895 5.52737427c-.00927735 12.30889892.94216918 24.2802124 2.05410766 36.53948974.6879425 7.5831604 1.23951721 15.19554139 1.67834473 22.79771424.02038574.35186767.0172882.93887329.01339721 1.67474365v.00086975c-.02224731 4.20362854-.07019043 13.26190186 4.08413697 11.09515381 3.1370697-1.63641357 1.93148803-11.12342834 1.2644043-16.37278748-.1463318-1.15151977-.2667389-2.09912109-.3097229-2.7151947-.51538087-7.409729-.9880829-14.81111145-1.65608216-22.20925903-.6730957-7.45933533-1.38145447-14.9098816-1.50114441-22.4035492-.0092926-.58410644.04690552-1.3978424.11038208-2.31690979.18365478-2.6592102.4282074-6.20011901-.67633057-7.61265564-1.55401611-1.98703002-5.05776977-1.39949035-5.06149292 1.52238465zM2.4433291 170.01335144c-.21021319-5.25260925-.54253805-13.55641174 2.71780943-16.08512878 5.74872947-3.3546753 4.61237789 6.32814026 4.10525966 10.64927673-.0837469.71360779-.15033245 1.2809906-.16591549 1.61927795-.33028888 7.1857605.11782742 14.05479432.84103012 21.19509888.488101 4.82214356.20301056 9.62817383-.08254337 14.4420166-.10198975 1.71932984-.20403862 3.43966675-.27093983 5.16207886-.13499164 3.4746399-.20874977 6.9441681-.47038269 10.4127655-.02128124.28320313-.028409.82637024-.03751945 1.52056885-.02568627 1.95722961-.06712723 5.11497498-.48593521 7.03141785.89198875-.03823853 1.7574129-.02876282 2.47255802-.02093506.45575046.00498962.85046768.00930786 1.15213299.0001831 5.4261074-.16415405 10.8526802-.3079071 16.27786064-.51194763 20.87036514-.78460693 41.75231933-.4298706 62.61850738-1.42082214 19.73615265-.93811035 39.54467774-1.13703919 59.29566956-1.37956238 1.72798157.15071106 2.50082397 1.9643097 1.3916626 3.3582306-.84965516 1.06793212-4.11851502 1.11621093-6.24969483 1.14768981-.59043884.00871277-1.09355163.0161438-1.43370056.04360962-5.56295776.44702148-11.11523437.64826965-16.69489288.70159912-11.75030518.11175537-23.45607758.61535645-35.18689728 1.28450012-20.8429947 1.18803406-41.71659851 1.08973694-62.5707264 1.93786621-5.0619545.20588684-10.12437439.35984803-15.18864917.49246216-.54426289.01426697-1.26807309.09243775-2.08684254.18087769-3.19894218.3454895-7.84699702.84747314-8.90036583-1.6930542-.93450355-2.25468445.36454797-3.29246521 2.26463485-3.76475525-.30028248-1.33442688-.24471617-3.21104431-.2128911-4.2858429.00956392-.32298278.0169835-.57356262.0119586-.715271-.10205555-2.87457275-.13777495-5.7505493-.24864436-8.62420654-.26348877-6.84817504-.43837547-13.73574829-.96628093-20.56861877-.50424695-6.53144836-1.77808595-12.86489868-1.81473303-19.44503784-.00401974-.72761536-.04044175-1.63769531-.0815289-2.66433716z"/>
        <path fill="rgb(137,197,204)" fill-rule="evenodd" d="M80.21787262 185.56987c17.01408768-7.64370728 34.2086525-15.78826905 51.95566177-21.35011292 1.1175232-.3496399 1.82402039.8026886 1.57026673 1.7695465-.3395691 1.29421998-4.32019043 2.34176637-5.42471314 2.83515931-4.37075805 1.95178223-8.76379394 3.85534668-13.134552 5.80851746-9.5217743 4.2545929-19.06166077 8.46931457-28.5820427 12.72669983-.18655395.0834198-.37310027.16687011-.55963897.25033569 6.69388199 2.37901306 13.35008621 4.86419678 19.97694778 7.42459106 3.54595948 1.36982727 7.0729065 2.78414917 10.61099244 4.17344666 1.7720642.69558716 9.14093017 2.44239807 9.56492614 4.21194458.52793885 2.20591736-5.53329468.07203674-7.82019043-.733078-.30332946-.10679627-.54025268-.19020081-.68659973-.23701477-3.53019714-1.1282196-7.0163269-2.39138794-10.5024414-3.64759827-7.80029297-2.81011963-15.56718827-5.70928955-23.398098-8.43408203-.73252868-.25491333-1.46536255-.50894165-2.19851684-.76211548-8.31212616 3.73345947-16.60767365 7.50289917-24.87620545 11.3321228-4.43338775 2.05334473-8.84311676 4.15444946-13.24078369 6.283844-.95976639.46482849-2.14836502 1.18319702-3.43951416 1.96354675-3.09473419 1.87039184-6.77863312 4.09687805-9.31278992 4.0415802-1.35873031-.03015137-2.27444648-.3213501-2.41639709-1.96847534-.1459732-1.69940186 2.03465271-2.59095764 3.60249329-3.23196411.37530899-.15344239.71550369-.2925415.98026657-.4249115 4.70012283-2.35058594 9.42947006-4.64179993 14.17226791-6.90428162 9.41973114-4.49295044 18.92758942-8.80644226 28.4693222-13.03414917.05490876-.0243225.10981751-.04867554.16472626-.0730133-5.29182434-1.79090882-10.59845733-3.53919983-15.916687-5.25050354-.53102113-.17086792-1.61973954-.47241211-3.05093385-.86880494-6.76054382-1.87245178-21.16283798-5.86141967-20.52157974-8.19129943.73485947-2.66497803 14.23739243 2.2062683 20.21530151 4.36289978 1.12031556.4041748 1.9763527.71299743 2.43453598.85900878 7.1469574 2.2776947 14.27406312 4.61967469 21.36397553 7.06816102z"/>
        <path fill="rgb(137,197,204)" fill-rule="evenodd" d="M6.50126362 250.24589539c-.49682474-6.14794922 9.31488895-12.29266358 14.62502575-12.9710846 6.95276546-.87828064 12.67483425 5.98240662 12.32088756 12.5375061-.36276245 6.71554566-5.451622 11.1282959-11.90849209 11.87069703-3.4578266.39785766-7.25382995-.15905762-10.03066825-2.42849732-1.34852505-1.10177612-2.3547001-2.48876953-2.85894776-4.18086243-.3442049-1.30351257-.41193294-2.6209259-.20364666-3.95272827-.86515283.12937928-1.51320553-.16229248-1.94415855-.87503051zm23.5502491.19662475c.4773407-4.37193298-2.59221268-8.54631042-6.94395447-9.30911255-2.0181799-.17912292-2.34444523.38575745-2.76403713 1.11221314-.28754616.4978485-.61892128 1.07157898-1.56868553 1.53375244-.31515313.15335083-.71710778.15454101-1.14077568.15579224-.47184754.00138855-.97063065.00286865-1.40643692.21470642-1.20332814.58522033-1.96457005 1.9146881-2.62653923 3.02575683-2.98976422 5.01881409-1.69180298 10.23562622 4.47931098 11.11019898 5.43863202.77069091 11.32584668-1.93649292 11.97111798-7.8433075z"/>
        <path fill="rgb(137,197,204)" fill-rule="evenodd" d="M46.84563389 245.27470832c-2.38253333 1.26270088-6.15163056 3.20242832-7.54886389 5.60077168-1.47609444 2.53282124.05241944 5.30399292 3.16233056 4.10574867 2.46881666-.95108318 4.03908055-3.97358938 6.67257777-4.9422938 2.32408334-.8546301 3.260675-.4192 5.71696667.43218407 2.53097778.8768885 4.74326389 1.72456283 7.47928056 1.50939823 3.43880833-.2703469 6.416975-2.2643292 9.78295277-2.71784425 2.83389723-.38210265 5.17096945.72061593 7.88518334 1.15929204 3.14887777.50869734 5.20761666-.68305487 8.153775-1.30350797 2.004-.42244602 5.53605 1.29562478 6.99776389.65291328 3.28665277-1.4449416-.19019445-3.21170266-2.00956667-3.79552213-3.06491389-.98307964-4.95108611-.11546549-7.86616389.69974867-3.16511389.8852354-4.53219444.21980177-7.55767778-.5930938-6.12101389-1.64480354-10.84989722 2.33203186-16.65175555 1.60909734-5.37183334-.66960708-8.58611945-5.39812743-14.21680278-2.41689203"/>
        <path fill="rgb(137,197,204)" fill-rule="evenodd" d="M133.55628967 247.82199097c.49821472-6.35290528 5.6905365-8.87878418 11.19503784-9.94949341 11.14215088-2.15397644 12.00915528 17.70701599.0176239 18.62008667-5.34121703.40667724-11.69927978-2.47207642-11.21266174-8.67059326zm6.155365 3.48251342c6.49676513 4.4145813 13.11552429-3.44448852 7.22367858-8.96827697-2.56391907-.15255738-6.13957214.64363098-7.76689148 2.68585205-1.77947998 2.23278808-1.74282837 4.72851562.5432129 6.28242492z"/>
      </g>
      <g opacity=".5">
        <path fill="rgb(193,222,226)" fill-rule="evenodd" d="M562.1390798 96.00570904c-4.40294936.08507933-15.27565134 1.68657255-16.89216867 6.89506527-1.22700617 3.95368639 2.41763955 3.08560427 4.37118072 1.64699019 2.64278252-1.94545029 4.9600516-3.10971766 8.2345236-3.7016332 12.4735652-2.25619456 24.45863 5.83453099 36.81248728 6.85775776 4.67965882.38763416 10.32711012.64014232 14.794978-.87536163 3.18192858-1.07918805 3.59722298-3.43229115-.03407071-3.79080725-3.08524142-.3043747-6.4992192.65515632-9.66227076.62785814-13.08867973-.11192254-24.72336866-7.90600786-37.62465946-7.65986928"/>
      </g>
      <g opacity=".5" transform="translate(44 343)">
        <path fill="rgb(137,197,204)" fill-rule="evenodd" d="M55.50901743.36169818c-8.42423468.09463438-16.84429665.40544338-25.25184049.93752983-7.99537298.50657229-16.6704338.12200413-24.53552554 1.6718741-2.23332628.43977154-5.25019447 2.47533855-2.28061697 4.71409114C5.5283159 9.2591857 13.16483596 7.4486073 15.6573338 7.29552227c9.17903126-.56409514 18.36269887-1.23998875 27.5547119-1.56471457 8.7019516-.30756174 17.40343957-.41611295 26.10956388-.50286113 1.32923945-.01298903 3.53567494-.43930765 4.85935078-.05334781 1.90182778.55481726 1.45071163.70558282 1.59304735 3.11968736.2582443 4.37405682.18684461 8.76388604.100145 13.14211792-.0839178 4.23674419-.24062618 8.47302448-.22532625 12.71162425.01066359 3.0241252-.95601386 9.03340848.5614611 11.6595126 2.18418104 3.78027246 4.44996172-.32565362 4.61316098-2.8376398.3124895-4.80455048.17247195-9.66801551.17386285-14.47859662.00092727-4.5155445.03338167-9.03108901-.12564488-13.54431404-.11544494-3.26024726.3505075-8.95129924-1.40573911-11.9151182C77.67722639.01331375 73.37052766.66415708 70.22801458.52034992c-4.90200513-.2254525-9.81281931-.2096801-14.71899715-.15865175"/>
        <path fill="rgb(137,197,204)" fill-rule="evenodd" d="M1.90960914 5.81040304C1.91888183 14.29456098.93736808 22.72212386.66243296 31.19654003c-.12610853 3.89624597-.38203464 8.17474062.60365181 11.99954691.99495915 3.86191782 4.15509033 4.69878265 4.51904323.38735152.73717849-8.73048567.55636112-17.7833777 1.13034035-26.58391138.20260817-3.10716222 1.52118404-8.80146146.29023505-11.71100483-1.08397692-2.56301452-5.3007306-3.0542783-5.29609426.52188079"/>
        <path fill="rgb(137,197,204)" fill-rule="evenodd" d="M80.90592908 43.207554c-14.62997938 1.93675759-29.92434666 1.23071087-44.65864374 1.53502535-7.0690317.14612662-14.13667251.1554045-21.20663149.22916366-2.46746158.02551417-8.73347873-.91294346-10.8680509.4740997-3.39797557 2.20813559.28884414 3.91201837 2.53839762 3.96072724 13.95214607.30570617 28.05960962-.33585928 42.00897389-.79372269 6.26740805-.20550506 12.55521601-.30617006 18.80593324-.8387204 3.84816443-.32797309 8.05332726-.6457405 11.79021947-1.6797603.79606004-.22081356 2.52958857-.17488805 2.70808777-1.26086398.10988132-.67171855-.08948142-1.76790015-1.11828586-1.62594858"/>
        <path fill="rgb(137,197,204)" fill-rule="evenodd" d="M20.07020477 55.54017684c-4.06607254.0236586-16.31899901-1.86485401-18.00291868 2.10004828-2.24491713 5.28792806 6.51267058 4.05350605 8.86793267 3.99319982 5.3494122-.13731263 10.69511533-.15215724 16.04591843-.14983777 5.25019447.00231947 10.4999253-.0315448 15.7491925-.15633229 1.5207204-.03664763 5.06056805.59471215 5.93544592-1.23674149.66485154-1.3916821.13955392-2.48971927-1.08675873-3.22638299-2.95056849-1.77346688-10.61583387-.74501381-14.0703728-.90459336-4.4726798-.20596895-8.9601959-.4193602-13.4384393-.4193602"/>
        <path fill="rgb(137,197,204)" fill-rule="evenodd" d="M69.53668952 56.5191788c-2.32373496.13824042-7.02405918-.81970075-9.10577705.24354437-2.36592568 1.20890784-1.53231126 3.1015955.51046133 3.9333575 1.41454816.57569248 7.21739467.27369747 8.59531572-.39338215 1.43633897-.69584105 3.06044981-3.9718607 0-3.78351972"/>
        <path fill="rgb(137,197,204)" fill-rule="evenodd" d="M95.0127899 6.64286975c-2.48183424.68099644-1.72889219 14.77084987-1.79287372 17.00449963-.17525375 6.11969007-.863287 13.81661984 1.1702129 19.71039351 1.29678505 3.75707776 3.78742835 3.24772212 3.363203-.7079023-.37276196-3.47178292-1.01211362-6.90367097-1.28890328-10.39818471-.62590626-7.90707377-1.47760241-16.34113116-.88646872-24.25469945.2517534.45971899 2.60608823 4.72476072 3.16013118 4.40652941-.16737197.09927332-2.71550592-6.02691126-3.72530135-5.76063609"/>
        <path fill="rgb(137,197,204)" fill-rule="evenodd" d="M122.93001744 1.45347278c-5.02255004.07422305-10.04510008.1632907-15.06625922.3024589-3.9923547.11133458-10.26579-.54461158-13.92710982 1.13468481-4.35955303 1.99938328-2.29128056 6.45462156 1.80353731 6.54879205 3.62237455.08350092 7.48537528-.73341647 11.14066786-.85866786 9.87309177-.33817875 19.76380164-.41008232 29.64152975-.49451104 8.9333051-.0770064 18.24632668.87583194 27.10127759-.4657496 1.31347589 11.66275985-2.23888989 23.37469246-1.03065898 35.17151769.18730824 1.83098974.10339044 4.41812676 2.43500718 4.8351675 2.94268671.52651972 3.06369525-2.38812648 3.17543111-4.47518573.31851675-5.95918273.1460448-11.9230044.58232465-17.89007333.40428908-5.52961686 1.20034912-11.18123785.5276158-16.7196687-.82712354-6.8155311-4.09296334-6.26906394-9.86613726-6.55250319-12.19311765-.5979594-24.31066292-.7153246-36.51722597-.5362615"/>
        <path fill="rgb(137,197,204)" fill-rule="evenodd" d="M106.09768256 42.86645272c-2.55926116.06448127-6.80986015-.72413858-8.44973456 1.72986085-1.7061741 2.55327275.31805311 4.780428 2.79896009 5.30462825 2.93665946.62022632 6.7658149-.23009144 9.81374658-.23936932 3.1740402-.00927788 6.34900769.02597806 9.5230479.0385032 13.60812944.05334782 27.2746768.25931677 40.87306992-.3033867 1.89904597-.07839809 7.28879435.55852842 8.6031975-1.26318344 1.16650383-1.61574291.35050751-3.06494787-1.18551282-3.88789588-2.52031589-1.35039553-7.6967925-.83686484-10.4999253-.94402436-3.4619571-.1317459-6.92808689-.17488805-10.39189852-.22869975-13.67164734-.21107179-27.41469435-.5446116-41.08495079-.20643285"/>
        <path fill="rgb(137,197,204)" fill-rule="evenodd" d="M117.60907239 54.67037553c-5.09255882.08674818-10.52588882-.13684874-15.5679115.63553482-4.43327089.67914086-4.97896842 4.96459393-.20678089 5.46606337 4.38551656.46111067 9.70247436-.40034054 14.1093181-.6833159 1.56522928-.100665 3.38545743.04221435 4.13561767-1.68811039.78307829-1.80779504-.71399677-3.54136703-2.47024338-3.7301719"/>
        <path fill="rgb(137,197,204)" fill-rule="evenodd" d="M156.10838122 55.12021357c-2.71828772.06772853-10.65756095-1.10082054-12.00395487 2.00355832-2.24120806 5.1687073 8.50676157 3.20504387 10.56854317 3.12896524 2.59867008-.09556217 12.7267607 1.42183521 12.72907887-2.71517176.00231817-4.0567533-8.80487841-2.4790497-11.29366717-2.4173518"/>
        <path fill="rgb(105,161,172)" fill-rule="evenodd" d="M1.47007879 80.8038458c.00649088 9.40266813-.57861557 18.89347612.27910783 28.27202176.35468021 3.8790819.29394412 11.3097365 2.5407158 14.59828128 1.59490188 2.33431477 3.80690098 2.17056018 4.67806977-.63228756.58232464-1.873668-.3491166-5.62100398-.45297068-7.6254901-.100145-1.92376854-.21698084-3.8466093-.30599862-5.77084175-.2285717-4.95717162-.21048996-9.90692094-.14233572-14.86687593.05841792-4.25437216 1.08258602-9.88326234.11683584-13.9748077-.90037775-3.81320894-6.71342422-4.70481327-6.71342422 0"/>
        <path fill="rgb(105,161,172)" fill-rule="evenodd" d="M95.96676378 72.53210493c-16.31297177.40915454-32.66257065.04360604-48.96116976.85124555-8.03802733.39802108-16.04452753 1.27246133-24.04221868 2.14411821-3.92930043.42863809-7.8562827.8702652-11.77862862 1.35364279-1.18365829.14566272-11.01919568.52698362-7.31985784 4.2673612 1.6153018 1.63337088 6.75561494-.07283137 8.78957848-.31359237 3.93810948-.46482182 7.88410075-.8702652 11.82777385-1.28730594 7.50438428-.79372269 15.01804125-1.54569491 22.5544163-1.96273565 17.74931074-.98345534 35.5718757-.68841874 53.33880454-1.343901 4.80603283-.17720753 9.597693-.30431449 14.40558038-.11504572 1.26247612.04963666 10.53979785.520953 6.51174332-2.90536833-1.90460958-1.62084574-9.08584078-.7844448-11.46613912-.83315368-4.61965186-.09556217-9.24208553.02876143-13.85988285.14473494"/>
        <path fill="rgb(105,161,172)" fill-rule="evenodd" d="M118.85686064 106.48519897c-.7343979-10.3647766-.53781891-20.76528167-1.01072693-31.14073944-.20816803-4.57121276 6.01844025-5.26380157 7.86508942-1.56378173 1.32940673 2.66394043 1.09562683 7.19642639.89526367 11.0810089-.08075714 1.56560517-.15608216 3.0259781-.12145233 4.216362.07937622 2.72843934.28004455 5.54959107.4833908 8.40828705.51168824 7.1935959 1.04029084 14.625-.3044281 21.41545868-.65364074 3.30015564-3.43746185 5.03461457-5.29023742 3.23588562-.0025177.00379944-.00506592.00759888-.0076294.01137543-.69686127 1.02714539-2.86641693 1.02479553-4.46411896 1.02306366-.44003295-.00047302-.83668518-.0009079-1.14724731.02023315-4.37716675.29735566-8.67320251.7992859-13.01142883 1.44966889-8.6439972 1.2956543-17.212883 2.09216309-25.95053864 2.30833435-17.28104019.4272461-34.63348007.02783203-51.88855552 1.21169281-3.8217373.26255798-7.5855217.71253967-11.34466744 1.43203735-.31997538.06132508-.67531157.14033509-1.05356455.22445679-2.7950983.62156677-6.84152221 1.52140808-7.11798906-2.3848114-.32861805-4.63622284 9.7194643-5.24331665 14.89029026-5.55573273.7894535-.04769897 1.4652195-.0885315 1.97301483-.13578033 15.70063591-1.4605484 31.64758873-1.2343216 47.4148388-1.01065064.76393127.01084137 1.5274353.02166748 2.2904663.03230286 1.2304306.01708221 2.46051025.03733063 3.69032288.05757141 6.75087738.1111145 13.49369049.2220993 20.24247741-.19071197 7.97045899-.48753357 16.2111969-.35953522 24.12326813-1.21669007-1.01904297-3.95108032-.86992645-8.89180755-1.15583801-12.92884064z"/>
        <path fill="rgb(193,222,226)" fill-rule="evenodd" d="M131.40784824 78.69275684c-2.20365368.29967555-4.04196356 2.18586868-3.05813164 4.5781702 1.2392944 3.01206395 4.93028682 1.83516479 7.36853945 1.64450434 7.75011044-.60723729 15.84191935.60538171 23.49837567-.30941732 2.09099056-.25003888 5.12454959-1.38889873 3.24729443-4.19870488-1.41130272-2.11164563-6.55300677-1.7409943-8.73857871-1.9432521-7.47517533-.691666-14.8520602-.50703617-22.3174992.22869976"/>
        <path fill="rgb(193,222,226)" fill-rule="evenodd" d="M144.48831552 91.83399336c-3.00574097.2022578-10.00244573.04314214-11.26909455 3.46296895-2.27180792 6.13499856 6.62718825 3.97325238 9.33666692 3.62440406 3.14761305-.40544338 10.5676159.68006866 12.24365379-2.37235407 2.99693191-5.45817718-7.67546533-4.8968654-10.31122616-4.71501894"/>
        <path fill="rgb(193,222,226)" fill-rule="evenodd" d="M136.75911498 105.2977754c-1.42567538 1.42647415-1.42799355 3.97371627 0 5.40019042 1.74836483 1.74656103 5.55758399 1.3837959 7.8548918 1.51136676 3.20417643.1790631 12.40685304 1.87366799 13.99804586-1.89918217 2.14662667-5.0907731-6.1867357-4.98407748-8.9277415-5.27308346-3.16801296-.3335398-10.2996353-2.36632345-12.92519616.26070845"/>
        <path fill="rgb(137,197,204)" fill-rule="evenodd" d="M24.43717596 18.15866798c0 5.47302178 8.54802502 5.47302178 8.54802502 0 0-5.44333257-8.54802502-5.5263696-8.54802502 0"/>
        <path fill="rgb(137,197,204)" fill-rule="evenodd" d="M40.65120817 18.220737c0 6.2570027 9.73631966 6.24447756 9.73631966 0 0-6.23519968-9.73631966-6.29875316-9.73631966 0"/>
        <path fill="rgb(137,197,204)" fill-rule="evenodd" d="M30.84246884 26.540027c-4.73277862 1.30678949-.37276195 5.31761729 1.82486449 6.233808 3.49255695 1.45662726 8.25918087 2.53007805 11.7526651.34652884 1.38997553-.86887352 2.51846135-2.02350576 1.49985686-3.70976057-1.08536783-1.7952699-2.57131566-.99690827-4.2237082-.8312981-2.09330873.21060789-3.78511017.1781353-5.80655559-.49311936-1.50866591-.50100555-3.40168463-1.99891938-5.04712266-1.5461588"/>
        <path fill="rgb(137,197,204)" fill-rule="evenodd" d="M116.68996381 18.50519682c0 3.70187437 5.74813767 3.70187437 5.74813767 0 0-3.70187438-5.74813767-3.70187438-5.74813767 0"/>
        <path fill="rgb(137,197,204)" fill-rule="evenodd" d="M129.40212003 19.06242633c0 4.11288448 6.3856348 4.11334838 6.3856348 0s-6.3856348-4.11288449-6.3856348 0"/>
        <path fill="rgb(137,197,204)" fill-rule="evenodd" d="M128.92916671 27.98830417c-3.35439394.43234924-13.05594103 1.41580458-13.59885676 5.55049209-.83732349 6.37900683 9.79288304 1.21633015 12.21908117.7153246 3.09012241-.6378543 5.84967358-.47131634 8.93469601-.34745663 1.69365599.06772852 3.9464549.3423538 3.76888298-2.23782481-.29116232-4.2367442-8.39178028-4.05628942-11.3238034-3.68053525"/>
        <path fill="rgb(105,161,172)" fill-rule="evenodd" d="M44.5916822 86.81452077c-2.43129811.64852385-5.6118292 4.85186768-3.93903676 7.42416008 2.74286034 4.21911622 3.95248215-2.25870004 5.1004406-2.88217362 2.08867238-1.1346848 3.7841829 3.01113616 5.96697305.83640094 3.44433899-3.43142415-4.95995942-5.95918273-7.1283769-5.3783874"/>
        <path fill="rgb(105,161,172)" fill-rule="evenodd" d="M72.45035272 83.69580758c-2.88334152.02644196-8.97039584 4.10870944-9.40157571 7.12262896-.25592612 1.79109486.93144125 3.51167782 2.86201434 3.53580031 2.62880631.0320087 3.46427527-3.38596253 5.7430377-4.10082324 2.4581889-.77099188 2.09330873 1.00433058 4.21629005 1.92469634 1.55363843.67403803 3.49672966.39199046 4.03639995-1.51832516 1.01814085-3.60306495-4.49354334-7.02057228-7.45616633-6.9639772"/>
        <path fill="rgb(105,161,172)" fill-rule="evenodd" d="M50.37964605 100.9537789c-4.61177008 2.70264663 2.97653201 8.4952914 5.60719286 9.21989389 3.97149115 1.09293433 11.96454595-.94727162 12.90572352-5.7986754.3746165-1.93072696-.83315078-3.67960746-2.96401388-3.3340064-1.75439208.28483093-2.87963245 2.48554422-4.50467057 3.27370018-2.19345372 1.06370901-4.14349946.99134154-6.00730923-.61002066-1.51840223-1.30447001-2.33161674-4.3285952-5.0369227-2.7508916"/>
        <path fill="rgb(193,222,226)" fill-rule="evenodd" d="M53.72217095 140.88535965c-4.12031775.8786153-8.30878974.28900598-12.44904377 1.11520125-4.22185365.84289546-6.74495135 2.43776314-10.66729727.83083421-.18452644-.0779342-.36858924-.1558684-.55265205-.2338026-3.0358772-1.30725337-6.21779919-1.69460489-9.39554847.389671-1.8805006 1.23303033-7.58922936 5.49853595-6.9011961 8.10144536 1.49104781 5.642807 7.91470061-3.20550775 9.55272049-4.06788676 3.12350407-1.64450434 5.26503076.45647173 8.48079806 1.0493283 3.8518735.71022176 6.9512686-1.32534525 10.5796704-2.13576812 4.24364446-.9481994 9.01768653-1.27849195 13.33504885-1.78599202 1.70571048-.20040223 8.16645402 1.14860162 8.74970593-.97417747 1.00191366-3.64667098-9.11273156-2.63259863-10.73220607-2.28885315"/>
        <path fill="rgb(193,222,226)" fill-rule="evenodd" d="M89.00321198 138.23236084c4.4838028-.60585022 9.00052642-.94541931 13.51818084-1.14118958l.06551361-.00274658c3.7284546-.1565857 10.41485596-.43737793 12.21337128 3.75750733 1.37514496 3.20689392-.35050201 9.90830993-1.95931244 12.7858429-2.09658813 3.74925231-6.67137146 3.64250182-10.71286774 3.54818725-.75602722-.01763916-1.49340057-.03485108-2.19239044-.0262909-.56690216.00697327-1.1350174.01519776-1.70401764.02345276-4.04958343.0586853-8.14400482.11801148-12.16606903-.27163696-3.4823532-.336792-5.9678955-.9157257-6.9554367-4.49003601-.64306641-2.32688904-2.97792817-11.03649902-.31156159-12.32427979.56725311-.27397155 1.24865723-.23060607 1.8618393-.19155883.37311554.02374267.72097778.04588318 1.00248718-.00605774 2.30844116-.42538452 4.84080505-1.32348633 7.34026337-1.66119385zm5.98597717 2.43218994c.60539245-.0613861 1.4393158-.1864624 2.41722107-.33312988 4.71985626-.70791626 12.79360199-1.91885376 14.71313476 1.10040283 1.50913239 2.37420654-.88600158 11.1367035-3.17079162 12.27000427-1.30197144.6452179-3.83776856.32189942-5.9125061.05734253-.83546448-.1065216-1.5961609-.20350647-2.17142487-.22389221-3.72854614-.13127136-7.46497345-.18972778-11.18934632-.4221344-.24586486-.01533508-.59906005-.01876831-1.01528167-.02279663-1.6982727-.0164795-4.44574738-.04312134-5.232193-.93096924-1.1563034-1.30540466-1.1048355-8.26426697-1.37699127-9.98995972 2.19960785.71200562 5.8072586-.07551574 8.95922852-.76356506 1.49523163-.32640076 2.88787842-.63040161 3.9789505-.74130249z"/>
        <path fill="rgb(137,197,204)" fill-rule="evenodd" d="M135.0197754 134.17674255c.82685851-.02603149 1.59274291-.05015564 2.25518798-.08872985 2.53256225-.13252259 5.14976501.20166015 7.76856995.53604126 1.8182373.23216247 3.6372528.4644165 5.42924499.5406494 5.94146729.25282289 8.08995056.94032289 9.37467957 6.73713685.2257843 1.01824951.8224945 1.56425476.83964538 2.76156616.01724243 1.18884278-.35520935 2.88134766-.69129944 4.40859986-.15190124.69026184-.29637146 1.3467865-.39407348 1.90777587-1.02462769 5.89006043-4.21072388 7.81430054-9.80493164 7.9613495-6.21177674.16329955-12.56124878.03479003-18.74102784-.65408326-5.1783371-.5770874-7.76541137-2.14273071-8.27633667-7.64126587-.05819702-.62593079-.16414642-1.38677978-.28173065-2.23117065-.5812378-4.17393494-1.44672394-10.3891449 1.76628876-12.43948365 2.40704346-1.53555297 7.15841675-1.68513488 10.75578308-1.79838562zm-5.72906495 5.12776184c-.21211243.17604065-.28189087.17871094-.26374817.1360321.0181427-.04267882.12419128-.13069152.26374817-.1360321zm26.0349121 1.34991456c.01982118-.30627442-.46247863-1.00686646-1.50634765-1.18292237.96459961 1.40118408 1.4865265 1.48921204 1.50634766 1.18292237zm.28733827-.49664307c-.07081604-.09562683-.2191925-.28686524-.2326355-.28686524.29673767.38247681.30345154.38247681.2326355.28686524zm-10.44369507.91416931c.15159607-.19345093.35235595-.18370056.60224914.02922058-.04226684.01417542-.10324096.03684998-.17340088.06295777-.38249206.1422882-1.03753662.3859558-.42884826-.09217835zm-14.77511597 7.5429535c-.50128174-.07911683-.9898529-.1562195-.97038269.32144164-.0774231.83825684.45993042.75012207 1.61206055-.26396179-.18585205.01445007-.4147644-.02166748-.64167786-.05747986zm3.43229675 3.57240295c.50489807-.16886902 1.00933838-.33772278 1.51423645-.50657654-.01530456.3841095.06721497.74407959.24757386 1.07901-.86421204-.0932312-1.72749329-.19343566-2.58985901-.29966735.27586364-.09092713.55218506-.18185425.8280487-.27276611zm15.47796631-.17396546c-1.99363708.36369324-3.98587036.73434448-5.97717285 1.10917664-.37461853.07051086-.74923706.1405487-1.1238556.21105957.70306397.05015564 1.34735108.14131164 1.94462586.22581482 2.14247132.30308532 3.68005371.52059936 5.1564026-1.54605103zm4.79629517 1.43714905c-.037323.05659485-.14268494.1763916-.18603516.2221527-.04335022.04574586-.02468872.01745606.18603516-.2221527z"/>
      </g>
      <g opacity=".5" transform="translate(297 339)">
        <path fill="rgb(137,197,204)" fill-rule="evenodd" d="M57.25118637 4.79423752c3.21709824-1.7184894 6.70812225-3.63688933 10.36136246-4.18235328 8.95327759-1.34464261 20.03630066 1.34557023 24.7096939 9.84525087 4.51858521 8.21813679.8384552 18.71692371-6.15193176 24.25458622-15.56684112 12.33137894-43.25447082-5.29229736-31.48965072-24.26618194-4.8828888-.99398709 1.3427391-4.99498272 2.57052612-5.65130187zM89.84302521 20.6586074c1.42523956-10.56604194-8.79940033-15.55360412-17.8110733-15.74562978-8.81237412-.19063378-17.26600648 6.44398737-15.9909401 15.99748945 1.13323975 8.49365043 9.95302963 14.8958931 18.2949562 14.31378937 7.76164246-.54175187 14.4632721-6.82525826 15.5070572-14.56564904z"/>
        <path fill="rgb(137,197,204)" fill-rule="evenodd" d="M65.45930857 16.76192723c0 3.54365958 5.50026032 3.54365958 5.50026032 0 0-3.54365957-5.50026032-3.54365957-5.50026032 0"/>
        <path fill="rgb(137,197,204)" fill-rule="evenodd" d="M75.6574781 17.32946936c0 3.84190213 5.96328888 3.84190213 5.96328888 0s-5.96328888-3.84190213-5.96328888 0"/>
        <path fill="rgb(137,197,204)" fill-rule="evenodd" d="M68.77526984 24.92741872c-.80276825 2.91470639 8.34795556 4.4096298 8.65246984 1.03619575.14507302-1.61180851-8.0944254-3.06962553-8.65246984-1.03619575"/>
        <path fill="rgb(137,197,204)" fill-rule="evenodd" d="M95.59940952 23.1259966c10.52914921-1.26347234 21.38552381-.67951064 31.96565715-.3766298 2.64793016.07653192 5.29539682.15074469 7.94379047.19480852 1.68340318.02829362 5.31949842.8362851 6.78876826.0482383 6.01705397-3.22686383-5.78623492-4.78718724-7.4575873-4.93561277-10.5240508-.86597021-26.7652762-1.17488085-37.32038096-.7662468-3.12161904.12105957-3.79646349 6.0604-1.92024762 5.83544255"/>
        <path fill="rgb(193,222,226)" fill-rule="evenodd" d="M142.97997841 75.46881702c.09038096-11.03219149.48573969-22.13905957 1.33393016-33.13831915.34530159-4.48337872.7596635-8.96072766 1.10311111-13.44410638.16175873-2.11181702.91215238-5.06965958-.32907936-6.92265958-1.2792381-1.9091234-4.08521905-2.3061617-5.7760381-.61411063-2.02406984 2.62017446-1.43589841 7.01774468-1.6875746 10.18709361-.38701587 4.87345958-.85467937 9.74320851-1.08688889 14.62687234-.4491238 9.45285107-.5543365 19.06989788.20532698 28.50929788.35874286 4.45415744 1.13648254 8.80024255 2.17099683 13.14447234.47137143 1.97730638 4.21870476 10.78589787 3.43123175 12.00066808-1.2213016 1.88361277-10.24641905 1.17163404-12.20374604 1.22404681-5.02379047.13497447-10.04943492.2226383-15.07415238.31865106-4.30213333.08209788-8.60426666.14100426-12.90686349.1790383-1.70843175.01530639-11.74627936-.28896596-9.5196635 2.24400851-24.89925713 1.73518724-50.27452063-1.16142978-75.02221586-2.15495319-1.2500381-.05055745-3.29542858-.40538723-5.18323175-.50742979-.22618413-.91188936-.41204444-1.7268383-.45793016-2.29317446-.32537143-3.97734043-.41019048-7.96813192-.76290794-11.94454468-.64518095-7.27517022-1.89614603-14.47705532-2.64051428-21.73970213-.74251429-7.25522553-.66789206-14.53225107-1.10033016-21.80510213C7.39928 42.09255319 7.22408 31.88458723 4.64799111 29.40448936c1.22130159.46290213 3.19067937.5232 4.32484445.43182553 9.1803873-.74073617 18.29356825-2.3358468 27.3951619-3.70507234 2.60389841-.39147234 8.51295873-.11410212 10.67283175-1.4156085 1.86926349-1.12710639 2.60899682-5.07754469-.6428635-4.75796596-9.0756381.97218723-18.10214603 2.48102553-27.10640634 3.96667234-2.40830477.3970383-4.81058413.82190638-7.2124 1.25605106-1.60414604.28989362-5.83814604.26762979-7.08215874 1.2347149-1.51098412 1.17395318-1.67135238 1.97266808-1.15919365 2.50375318-.7119238-.19573617-1.5652127.11178298-2.58999365 1.13731064-1.93739682 2.52184256-.11587301 8.7325234.11494604 11.6894383.27763174 3.54690638.4138984 7.09984255.57565714 10.65324255.31193016 6.8762766 1.03173333 13.65746809 2.13808889 20.45071915 1.23984127 7.61051915 2.29428571 15.2521149 3.53737143 22.8603149.32351746 1.98101702.74529523 3.91286808 1.28387301 5.82662978-3.34873016 1.7129234-1.07205714 4.43653192 1.58375238 4.91984256.01900318.0032468.03893334.00602978.05793651.0092766.82779683 2.01905106 1.9856 3.88967659 2.88987302 1.18415744.06906031-.20733192.10150476-.46290213.10984762-.75001277 6.85921904.77645107 14.39884444.29406809 21.1519238.57004681 14.62780953.5978766 29.346 1.4949234 43.98864127 1.04037021 5.79689524-.17996595 11.61140318-.69481702 17.35963175-1.4684851 3.36773333-.4531617 6.74844444-.9935234 10.0624127-1.74492766.23730794-.05334043.59836825-.10992766 1.01504762-.17857447.06813333-.00185532.13719365-.00371064.20161905-.0046383 5.0743111-.07653191 10.14445079-.21243404 15.21459047-.4234766 4.25578413-.17671914 8.53057143-.26762978 12.77291429-.66884255 2.63495238-.24954042 8.20380952-.20315744 9.82139682-2.85301702 1.47112381-2.40959574-.98816508-8.61610213-1.3376381-11.32254893-.61412698-4.76538724-.84911745-9.57530213-.80972063-14.37686809"/>
        <path fill="rgb(137,197,204)" fill-rule="evenodd" d="M91.55562667 43.61377574c-4.05462857.34740852-7.80381588 2.2514298-11.8959873 2.27508511-3.4344762.01948085-6.8161143-1.00697447-10.26959366-.85530213-4.05092063.17671915-6.27985396 2.7964298-9.8283492 3.67306809-2.82498413.6976-4.60479365-1.4652383-7.0895746-2.42165532-3.13737778-1.2082766-5.4548381-.58442553-8.14401905 1.2426-1.97586667 1.34278723-6.58390476 4.35582553-6.54821588 7.07154894.1056762 8.22555744 9.70274286-3.13734469 11.63735873-3.27510213 2.57052699-.18274894 5.44232381 2.74726383 8.17739048 2.91424255 3.61616508.22124681 5.93455238-2.1099617 9.26427937-2.95923404 3.36726984-.85901277 7.00707301.19341702 10.38268571.51995319 3.85161905.37245532 7.22213333-.48609362 10.94814603-1.40540426 3.61106667-.89101702 6.68819048-.84370638 10.35719365-.09554893 2.4764381.50511064 8.64551746 3.44115319 9.72869842-.33395745 1.47529523-5.14108936-13.88529524-6.5914851-16.7200127-6.35029362"/>
        <path fill="rgb(137,197,204)" fill-rule="evenodd" d="M92.78995238 59.30244723c-8.30809524.80613617-16.66671111 1.5134766-25.0128127 1.73982554-3.6147746.09833191-17.51119365-1.45085958-16.27876825 3.1424468 1.05629841 3.93837873 19.9667746 1.45874469 23.81839365 1.15864681 4.25207619-.3302468 8.4976635-.79222127 12.72888254-1.32748085 1.49939682-.18970638 5.12066032.00649362 6.1788127-1.25094893 1.00855873-1.19992766.51123174-3.65729788-1.43450794-3.46248937"/>
        <path fill="rgb(137,197,204)" fill-rule="evenodd" d="M41.386734 93.18641663c-12.53560447 4.54182434-18.56192779-17.70716858-4.15891265-18.19094086.71177292-.02677155.9952774.26722717 1.2621193.54394531.20474624.21232605.3996849.41448212.77075576.45375061.16116333.01704407.39565277-.14164734.65723038-.31866455.32219696-.21803284.68548965-.46389007 1.00346374-.44340515 2.48153687.16001892 4.37026596.57097626 5.8515892 2.88084412 3.04514313 4.74868774-.20903777 13.1987381-5.38624572 15.07447052zm-4.15891265-12.98908997c.91455841-.02887726 1.33874893-.25794983 1.70515823-.45581055.46346283-.25027465.83447266-.45063018 1.98840714-.1327896.30332565.08356475.52000809.10105132.69830322.11544799.38184357.03081512.5876007.04742432 1.09123993.66842651 1.44145966 1.77693177.08389282 5.64665985-1.33717346 7.07850647-5.26109696 5.30203247-11.57478714-7.0381546-4.14593506-7.27378082z"/>
        <path fill="rgb(137,197,204)" fill-rule="evenodd" d="M65.19623566 82.48243713c.61643982-5.01493072 4.09680175-6.89297485 8.60658264-7.532135 9.9664688-1.39055634 9.63877868 17.13572692-1.11423493 16.93906402-4.93341064-.09044647-8.06105804-4.77790833-7.49234771-9.40692902zm6.46456909-1.50235748c-.00003052.00011444.0032196.00118256.00994873.00325775-2.43101502 1.56588745-.7063675 6.34472656 2.36658478 5.17773438 1.26904297-.48146057 2.77724456-3.2403183 1.65559387-4.40685272.51183319.53253173-4.03090668-.7783432-4.03212738-.7741394z"/>
        <path fill="rgb(137,197,204)" fill-rule="evenodd" d="M120.24967957 75.75898743c-1.12490082-.74073792-1.76034546-2.09280396-1.0150528-3.36740876 3.13135529-5.35352325 8.48422241 5.11372376 8.85315704 7.26172638.7754364 4.5172348-.181221 9.98810578-5.38391876 11.12495423-10.23112488 2.23519897-12.508255-12.89447022-2.45418548-15.01927185zm-.08111573 8.77038574c1.06545258.94047546 3.03888703.76641846 2.72394562-3.34357452-3.94686127.34810638-3.78939056 2.40309906-2.72394562 3.34357452z"/>
      </g>
      <g opacity=".5">
        <path fill="rgb(193,222,226)" fill-rule="evenodd" d="M440.0209737 419.28610857c-2.99718897.53292357-10.0824692 3.84313486-10.02057073 7.39817724.09587282 5.54934602 6.11770945-.51248137 7.45713644-1.32731724 7.1955805-4.37938625 16.5157212 1.29546542 24.00822819 2.50298182 3.43513225.55336578 10.1550719 1.57642692 13.18949301-.72593604 5.39587093-4.09414615-7.08341862-3.0691834-8.67276649-3.23367186-8.63879214-.8923261-17.2329057-6.17354644-25.96152043-4.61423392"/>
      </g>
      <g opacity=".5" transform="translate(579 371)">
        <path fill="rgb(193,222,226)" fill-rule="evenodd" d="M2.5861249 9.26801463c-.00279184 5.67821952-.28988572 11.47414635.75658775 17.0842439.31687347 1.69841464.56674286 4.95158537 2.35863674 5.833 1.79980408.88512196 3.54470204-.10936585 3.99186122-1.9542195.52160817-2.1465366-.62257959-5.35892683-.73844081-7.6125122-.1591347-3.07846342-.16983674-6.16063415-.17123266-9.24280488-.0009306-2.22578049.73146123-5.80658536-1.89612245-6.95168293-1.9538204-.8517561-4.3012898.73173171-4.3012898 2.84397561"/>
        <path fill="rgb(193,222,226)" fill-rule="evenodd" d="M92.35340082.28708537C73.54060898 2.1755 54.45700898 2.5680122 35.57628245 3.55276829c-8.72774694.45507317-19.27530612-.12558536-27.49773061 3.25270732-1.52620408.62746341-6.99494694 4.11929268-2.55546123 5.54104878 1.38382041.4434878 2.7895102-1.04731707 3.92578776-1.54687805 1.8924-.83090244 4.08306122-1.08809756 6.10109387-1.4124878 17.15630205-2.755 35.10129796-2.27536586 52.43395103-3.56273171 4.44134693-.32995122 8.8845551-.66963415 13.31659591-1.10570732 3.16640817-.31141463 9.82168164-2.5937317 12.74380409-1.42639024 4.9932 1.99453658 4.87640816 14.95439024 4.97505306 19.4115122.05118367 2.30502438-2.18600817 10.57929268 2.26138775 9.74051219 3.55959184-.6714878 2.27069388-9.26736586 1.99337143-11.6187317-.72773878-6.16341464-1.96964082-21.44543903-10.9207347-20.5385366"/>
        <path fill="rgb(137,197,204)" fill-rule="evenodd" d="M99.29116163 32.14549756c-16.34108571 1.4755122-33.05860408.02780488-49.46669387.608-8.60071837.30492683-17.19259592.78919512-25.7942449 1.0732683-3.72012245.12326829-7.44396735.12836585-11.16595102.15478048-1.78026123.01204878-9.88170613 1.09134146-4.86989388 4.62070732 2.2190449 1.56263414 9.29076735.304 11.83692245.27341463 3.82435102-.04495122 7.64684081-.20390244 11.4684-.35358536 8.85244898-.34617073 17.69931428-.82580488 26.55641632-1.06539025 8.47229388-.22939024 16.94877551-.2785122 25.42060409-.50790244 4.21567347-.11446341 8.48857959-.2437561 12.66656326-.85917073.9427102-.13902439 4.0048898-.24931707 4.65957551-1.30080488.61885714-.99402439.18426123-2.78743902-1.31169796-2.64331707"/>
        <path fill="rgb(193,222,226)" fill-rule="evenodd" d="M25.46266747 29.09919548C13.1944065 31.6294384 8.5436716 14.12302398 21.67926407 11.78556061c.73851585-.13320065 1.23310852.10908127 1.7240696.34958458.33062744.1619606.65960502.3231144 1.0603218.36824512.44777489.05047798.88185883-.01324558 1.3181038-.07728672.58101653-.08529281 1.16586494-.17114925 1.79200172.01148224 2.19857216.64182854 3.77689075 2.87687779 4.50137424 4.91312218 1.85377884 5.21202469-1.22654724 10.63814544-6.61246776 11.74848747zm.26103782-11.43290329c3.81364823 3.8871212-2.05106926 8.52683067-5.62322426 4.73331642-3.79178047-4.02614593 3.1682682-4.72034073 5.62322426-4.73331642z"/>
        <path fill="rgb(193,222,226)" fill-rule="evenodd" d="M71.95033224 16.71300244c-7.92090612.02502439-15.84367346.36146341-23.76318367.51160976-2.42936326.04587804-8.67284081-1.04129269-8.68261224 2.78836585-.01070204 4.09195122 6.94422857 2.5807561 9.25866122 2.52560975 7.85576327-.18768292 15.7315347-.532 23.55612245-1.27995121 1.9761551-.18907318 8.81848163.13717073 8.81150204-2.55063415-.0074449-2.84768293-7.5844898-1.995-9.1804898-1.995"/>
        <path fill="rgb(137,197,204)" fill-rule="evenodd" d="M90.86884163 43.42134878c-19.59031836.5255122-39.15085714.70856098-58.7253551 1.71139024-7.32159184.37490244-14.63341224.65387805-21.96570612.65387805-1.41220408 0-4.2556898-.54682927-5.58460408.34246342-3.60705306 2.41207317.50020408 4.48260975 2.8509306 4.61282927 16.0805143.89253658 32.39368164-1.32860976 48.4648898-1.8300244 9.4084898-.29334146 18.81930613-.38 28.22221225-.85870731 2.56523265-.13068293 5.13093061-.28221951 7.69197551-.4810244 1.47269388-.114 5.36777143.19880489 6.55802449-.66268292 5.19746939-3.762-5.76002449-3.53539024-7.51236735-3.48812195"/>
        <path fill="rgb(137,197,204)" fill-rule="evenodd" d="M.98570449 53.00008293c-.18426122 5.07902439-.20333878 10.06953658.46111837 15.1207561.26150204 1.98758536.38155102 4.24302438 2.71133877 4.74814634 2.11574694.45831707 3.18874286-1.14185366 3.62706123-2.9162683 1.06973877-4.33292683.12842449-10.56909756.11586122-15.0702439-.00558367-2.22531707-.0079102-4.71617073-2.75786939-5.21943902-2.0980653-.38417074-4.07747755 1.13212195-4.1575102 3.33704878"/>
        <path fill="rgb(137,197,204)" fill-rule="evenodd" d="M111.63359265 65.24479512c-31.71154285 1.67107317-63.38167347 3.12990244-95.11601632 4.4714878-2.47496327.10473171-21.70094694-.1047317-14.9796 6.59995123 2.07619591 2.07053658 7.4248898.6682439 10.10970612.53663414 4.03466939-.19834146 8.0712-.34987805 12.10586939-.55517073 15.99675918-.81421951 32.0349306-1.03387805 48.01959183-1.9477317 8.79661225-.50280488 17.57321633-1.28968293 26.32376327-2.31429269 4.16216326-.48704878 9.32892245-.43653658 13.22725714-2.0677561 2.00546939-.8392439 4.16960816-4.92795122.30942857-4.72312195"/>
        <path fill="rgb(137,197,204)" fill-rule="evenodd" d="M93.39987429 39.47959024c-2.41168164 2.40187805-1.17164082 7.14029269-.98970613 10.10892683.2498694 4.08546342.55371429 8.1732439 1.0636898 12.236.33176326 2.63914634.15634286 6.74685366 1.56435918 9.02639025 1.6485796 2.6697317 5.27889796 2.37453658 6.76973878-.20482927 1.31867755-2.28092683.65142857-7.0805122.61699592-9.60843903-.04699592-3.49553658-.26475919-6.99663414-.47228572-10.4852195-.17355918-2.91580489.48717551-7.58841464-1.1167347-10.08390245-1.62950203-2.53580487-5.1760653-3.2364878-7.43605713-.98892683"/>
        <path fill="rgb(137,197,204)" fill-rule="evenodd" d="M15.52665997 56.47791672c1.7760744-3.59702301 6.70971393-3.81853485 10.29768848-4.10260773 4.03653336-.32763672 8.09958649 3.02146149 7.80644226 7.2932167-.36340332 5.29821778-7.14617157 7.81455994-11.6889553 7.10692597-4.72052956-.7349701-8.80126572-5.4664383-6.41517544-10.29753494zm11.02263736.93516922c5.25563431 1.0570488-3.24271774 7.19312286-5.92846489 2.98161316-.41924095-.65805054-.63746833-1.46670914.03582955-2.03856278.3388443-.28790664.6082592-.13615036.8791027.01641083.22047234.12418747.44189072.24890518.7024727.13744354.99994277-.42819595 3.24411391-1.1367569 4.31105994-1.09690475z"/>
        <path fill="rgb(137,197,204)" fill-rule="evenodd" d="M55.78094449 54.93020488c-3.71453878.05978049-11.01565714-1.0385122-14.25186122.77204878-3.20223674 1.79156097-1.77421225 4.98170732 1.14697959 5.74495122 1.9310204.50419512 5.08672653-.30956098 7.09731428-.39158537 2.6443347-.1075122 5.29099592-.13068292 7.93719184-.16729268 4.45018775-.05978049 8.89851429-.0092683 13.34916735-.0092683 4.5455755 0 9.16885714.12419513 13.70652245-.20992682 5.74141224-.42263415 5.5869306-4.72173171-.02791837-5.25929269-9.53877551-.91292682-19.3879102-.6302439-28.95739592-.47963414"/>
        <path fill="rgb(137,197,204)" fill-rule="evenodd" d="M46.29260816 103.07963415c0 2.0427317 1.81236735 0 1.79933878 0 .01302857 0-1.79933878-2.04273171-1.79933878 0"/>
        <path fill="rgb(137,197,204)" fill-rule="evenodd" d="M5.2970449 86.6369878c.11679183 5.9372683.19356734 11.88009757.44715918 17.81273171.08049796 1.87590244-.45693061 5.53919512 1.81702041 6.49568293 2.5308 1.06446341 3.31763265-1.58904878 3.6093796-3.38709756.92316734-5.69629268.01814693-12.20031708-.07072654-17.9642683-.0297796-1.9352195.38899592-4.62951219-1.8091102-5.59434146-1.7928245-.78734146-4.03001633.6742683-3.99372245 2.63729268"/>
        <path fill="rgb(137,197,204)" fill-rule="evenodd" d="M27.83921719 82.51222992c9.1088333-.39019775 18.22930145-.49863434 27.34418106-.64136505 9.34428024-.14505005 18.69600296-.13578034 28.04074478-.05004883 5.50643158.05097198 10.97517395.31975555 16.46346283.76324463 4.69773102.37953186 6.69156647.5727768 8.12750244 5.42936706 1.0180893 3.44223786 2.05757904 7.76636506 1.40196228 11.36755372-.47507477 2.60624694-3.58099365 5.64161682-5.7172165 2.0668335-.85725402-1.43488313-.48015594-4.00047303-.12837981-6.39378358.21321106-1.45058441.41712188-2.837883.33125305-3.8717804-.1712265-2.05941009-.07817078-3.832901-1.72441864-4.55443572-1.14076233-.49954224-3.03904724-.30760956-4.6886673-.14082337-.72694397.07350159-1.40559387.14212036-1.94985962.14453125-18.37819672.08294678-36.76616287.02687836-55.14063644.39668274-6.77578736.13624573-13.5459938.32717133-20.31340409.6839981-3.11894703.16451264-6.23510265.38370515-9.2879753 1.06816865-1.6774292.3758316-9.4657228 1.63817596-5.79306126-2.99040985 1.77979564-2.24246216 8.59652996-2.35044098 11.34044075-2.60995484 3.87413692-.36656189 7.8064413-.50094604 11.69407177-.66777801z"/>
        <path fill="rgb(137,197,204)" fill-rule="evenodd" d="M91.2337347 106.41404146c-19.76946123 2.2957561-40.10147756.94304878-59.97656327 1.02414634-4.8331347.01992683-9.67045714.05839025-14.49893878.29287805-2.55034285.1232683-8.5956-.5797317-10.34282449 1.38746342-3.68289796 4.14756097 2.95143674 4.75092683 5.3733551 4.579 4.89688164-.3480244 9.80539592-.50697561 14.71484082-.54497561 17.29263674-.13346342 34.68298776.67334146 51.9616653-.17980488 7.23876735-.35729268 14.31607348-1.59553658 21.42083266-2.97929268 1.57413061-.30678049 12.3492245-2.35507317 6.20485714-4.8102439-3.63124898-1.45095122-11.0426449.7854878-14.85722449 1.23082926"/>
        <path fill="rgb(137,197,204)" fill-rule="evenodd" d="M23.5624981 102.99830627c-3.30506898-3.77080535-1.11673547-7.6180725 1.53411292-10.91944122 1.1341114-1.40699768 3.28289414-.9067154 4.98714066-.50993347.48152351.11210632.9275608.21595001 1.30519485.26618195 2.51777268.33504486 3.9243927.27804565 5.6595192 2.3300476 2.6950531 3.18689728 3.02867508 8.06943512-.83475876 10.38882447-3.75036621 2.25080871-9.69605064 1.81565857-12.65120888-1.55567933zm8.26290511-5.9826889c.00069619.0004654.14505768.06128693.21706581.09158325.02393723.0100708.03987885.01676941.03988648.01675415.00001526-.00003051-.06421661-.02713012-.25695229-.1083374zm1.22049904 2.05664063c-.16471863-.69929505-.48531723-1.33324433-.96132278-1.90139008-4.71308708-.3026123-3.13476753 3.01080322.96132278 1.90139008zm.24393463-.0679474c.01814652-.03921508.06618882-.14939117.08968735-.21288299-.0960846.22035218-.10783386.25209809-.08968735.212883z"/>
        <path fill="rgb(137,197,204)" fill-rule="evenodd" d="M52.50016408 98.18889512c0 4.39595122 18.98123265 2.50382927 22.35795919 2.49919512 2.82859591-.00417073 19.93231836 1.55614635 18.70484081-2.96770731-1.00878367-3.71704878-17.85612245-1.86941464-21.44409796-1.87497561-3.1012653-.00417073-19.61870204-2.13356098-19.61870204 2.3434878"/>
      </g>
      <g opacity=".5" transform="translate(358 501)">
        <path fill="rgb(137,197,204)" fill-rule="evenodd" d="M5.04873848 11.1359346c4.2551403-5.24953247 9.28551388-7.73691607 16.16074753-7.77429915 9.47336387-.09299064 21.03130913 3.41214919 26.0196247 12.07476663 4.9911232 8.66682148 2.59018708 20.50373745-4.23224258 27.51168347-7.45280456 7.65560531-17.57476616 8.72055816-26.52990532 3.2584114C8.22864532 41.18219733 2.4978037 31.66490722 3.41462612 21.85929847c-3.72336444 2.3743-3.91355133-2.69065476-2.82850462-4.68224335 1.1616823-2.1327095 2.93644863-4.15887737 4.46261698-6.04112053zM45.01088715 26.2915418C45.0940628 15.22658896 35.2057495 10.75602794 25.6996727 9.37565398c-5.40327072-.64953232-10.7574768-.65700912-14.13177586 4.06168175-2.57523346 3.60140228-3.66962576 8.31495285-3.08457946 12.69298935 1.12897205 8.45000076 9.61915874 18.31028366 18.63598155 18.80981445 10.01915932.55607605 17.82196236-9.34532547 17.89158822-18.64859772z"/>
        <path fill="rgb(137,197,204)" fill-rule="evenodd" d="M41.82621495.7335514c-4.40186916 3.22616823-8.42102803 7.47429907-11.7593458 11.78317757-3.2630841 4.21168224-5.42009345 9.47056075-9.33971962 13.14299066-1.97943925-2.15607477-4.29859813-7.97897197-8.24719626-5.6686916-3.27663551 1.91682244-1.16682243 5.2135514.42897196 7.3780374 4.12102804 5.58925233 8.69719627 7.83878504 13.982243 2.31635513 4.8-5.01495327 7.52570093-11.70514019 12.0135514-17.0088785 1.96869158-2.3271028 5.00981308-4.6369159 6.57757009-7.20607477 1.42102804-2.32897196-.3364486-7.17663551-3.65607477-4.73691589"/>
      </g>
      <g opacity=".5" transform="translate(477 137)">
        <path fill="rgb(137,197,204)" fill-rule="evenodd" d="M89.17525482 14.8777253c.0066452.43978882.01288605.8535328.0222931 1.23389817.20531463 8.30437374.08620452 17.03458881-.58860017 25.3195238-.23266601 2.8605423-2.3136444 6.4862137-4.68754577 2.54301453-1.0438385-1.7338295-.8976059-5.29435348-.79003144-7.91358184.02883912-.70216752.0548935-1.33668519.0545044-1.85022736-.00219727-2.92243576.15133667-5.87477112.3052826-8.83504677.30096435-5.78732109.60350036-11.60499096-.2529068-17.28894377-.01734162-.11504459-.03381348-.22570753-.04966737-.33215093-.37213134-2.49954653-.3978424-2.67224169-3.14642334-2.61541414-2.27285766.04721307-4.54571533.1226611-6.818573.17033672-4.628685.09720278-9.2592163.1606164-13.88603973.3300271-.58582306.02160645-1.67827987.15863085-3.05692673.33155108-2.75621414.34570598-6.65629196.83488416-9.93878173.83210754.00231933.03934383.0064888.07868815.00741577.118958.03682709 1.81196499-.42985916 3.83464527-.89870072 5.8666668-.39264297 1.70175551-.78679275 3.41006278-.8879776 5.00664233-.24075698 3.79914856-.24337005 7.6383915-.24598312 11.47766495-.00318146 4.67489052-.00636673 9.34982872-.43948746 13.95248222-.02109146.22441483-.03380584.46159363-.04666519.70158768-.00170898.03186798-.00342178.06378937-.00515365.09573364.14839935-.02262497.29301834-.03857422.43195724-.04737472 2.36546707-.15005875 4.75095749-.16341019 7.13264465-.17673874 1.31370163-.00735474 2.6262474-.01470184 3.93363572-.0449791 2.3475914-.0544014 4.72405624-.05184936 7.1100769-.04928589 5.26724243.00566102 10.58102417.01137162 15.73345184-.59549331 1.52157593-.1971817 2.05363465 1.75474548 1.37094116 2.76658249-.76611328 1.13588714-3.21787261 1.07802581-4.3529129 1.24604797-3.32308197.49203491-6.69019317.66375732-10.04293823.81233978-3.52144623.1559906-7.04567719.2726326-10.56943893.37076187-.83845139.02314377-1.95772553.13628006-3.19878388.26172638-3.27637863.33117295-7.40154266.74814225-9.44932175-.17840957-2.2002182-.99547577-2.14889907-2.10084534-1.25085449-2.95722962-.3940239-.86603546-.45591736-2.13168335-.50432205-3.12147522-.0184822-.37793731-.03499603-.71565246-.06728363-.97554779-.48849869-3.94134903-.78280258-7.83224487-.78975296-11.80738258-.01390457-7.78642082.00185394-15.87324524 2.1556015-23.41017866-.86251831-.3777032-1.3829956-.93453741-1.38068008-1.73715592C40.09713745.3351275 52.682518.5408808 58.66503143.63868654c1.0696907.01748794 1.9282837.03152472 2.46614838.01720208 4.35800934-.11386633 8.71694946-.1286782 13.07588196-.10507179.9211502.00488472 1.9461441-.05536517 3.0081787-.11779195 2.2589798-.13278427 4.68551637-.27541747 6.63664246.17796523 5.12597657 1.18998348 5.24920655 9.35361397 5.3233719 14.2667352z"/>
        <path fill="rgb(137,197,204)" fill-rule="evenodd" d="M121.23479462 1.4972961c4.75891113-.2518021 9.52106475-.30966092 14.2860031-.32725013 5.04534913-.02545786 10.097641.06526494 15.14065553.22032678l.11656189.0035236c2.2344513.0671147 14.65431213.44016313 8.9484558 3.53512727-.33288573.1805768-.70758056.3314538-1.11639404.45669413.24169922 1.43311167.27102662 2.91276598.23213196 3.62555265-.24702453 4.53521252-.35316467 9.0787592-.5547638 13.61628628-.22431945 5.06473732-.43844604 10.12901306-.61271667 15.196064-.02153015.62179565.0113678 1.43487167.04801941 2.34110641l.00003052.00088501c.1212616 2.9976387.28373718 7.01409912-1.34390259 8.49892044-1.42860412 1.30366898-2.40480041 1.04242707-3.0626068.1569786-4.0881653 1.1871605-12.48385621.80116273-16.70565797.6070633-1.01716614-.04676437-1.79205322-.08238983-2.20602417-.08219146-.7400055.00027084-2.11515808.0926361-3.85186767.20928573-7.2292099.48557282-20.7233429 1.3919487-20.75099183-2.17185974-.00266265-.3428688.10875702-.65021515.31821442-.92546844-.57268524-.58435822-1.0881195-1.44249344-1.41909027-2.5131569-1.18787384-3.84368133-1.30003357-7.99147033-1.38809967-11.97725486-.1242752-5.62818337-.12564087-11.2628994-.12700653-16.89638138-.0007019-2.89325047-.00141144-5.78617478-.01876068-8.6777215-.77272797-1.0378151-.31388092-2.22476912.65034485-3.05291367 2.05274963-1.76196801 7.14822387-1.7832545 10.83442688-1.7986536.99199676-.00414407 1.88192749-.00786185 2.58303833-.04496253zm-7.74388123 43.39781582c4.58694458-.97943878 12.31583405-.66418839 16.4565506-.49529267 1.0845337.04423523 1.9229126.07843018 2.39421081.0766945 4.22917176-.0166626 8.45973206.04212188 12.6856537.211071.43783568.0174904 1.0861206.00114823 1.8500061-.01810836 1.53416442-.0386734 3.53466796-.0891037 5.2334137.0991745-.02275086-.23031235-.03807069-.44082642-.04725648-.62266922-.19033813-3.76154709-.05285644-7.5555191.0838623-11.32843018.02905274-.80200576.05809022-1.60305977.08392335-2.40264892.1478424-4.59723854.3744812-9.19077301.55152893-13.78708554.03004455-.7790947-.0146637-1.83739662-.06497193-3.02803897-.10232544-2.42235947-.22779846-5.39229107.2059021-7.6733656-1.5644989-.02973604-3.16778564-.14062023-4.6382904-.24232053-1.41694641-.09799672-2.71060181-.18746663-3.72743225-.18758822-1.28993225-.00012255-2.57965088-.0040865-3.86924744-.00804996-3.57322693-.01098252-7.14556885-.02196217-10.71940613.04878282-5.25297546.104146-10.56249237.16570807-15.77838898.85862637-.28590393.03803396-.62943267.11137819-1.00951385.20030689.53455353 2.23562956.27259827 5.38641596.04316711 8.1459155-.11143493 1.34030057-.2151947 2.588295-.2162857 3.59428407-.0070572 6.25578117.1581192 12.48695373.323143 18.71219635.06242371 2.35482406.12482453 4.70875549.1778717 7.06278991.0063324.28100586-.00022887.54206085-.01844024.78375626z"/>
        <path fill="rgb(193,222,226)" fill-rule="evenodd" d="M61.28407785 48.12343168c-3.12749771 1.82695297-1.44092922 9.13522773-.35733561 11.66296782 1.78111644 4.1561213 5.39525799 7.40825496 9.29489726 9.56569802 7.88223972 4.36024753 19.24421461 3.20214357 25.20536986 10.76175743.06164155.07822525 2.1222306 2.11809901 2.59126256-.52350743.38514383-2.1680891-3.46165982-5.47900742-4.95218037-6.5658292-4.23889954-3.09012872-9.67540639-4.0866906-14.5784589-5.63036634-5.22887215-1.64643317-10.96709818-4.6814802-13.15931279-10.0720792-.77631278-1.90934407.70354795-11.98558912-4.044242-9.1986411"/>
        <path fill="rgb(193,222,226)" fill-rule="evenodd" d="M132.77956553 51.63699505c-2.86610046.79012129-.97050685 4.73378465-.97514156 6.70839356-.00556164 2.463401-.79299771 5.04159406-2.31132648 7.00740842-3.85004795 4.98558663-11.38885617 5.7326609-17.04087671 7.16200743-4.10402968 1.03868316-13.92311188 3.26555693-14.30732877 8.81584653-.42917352 6.1983094 8.23957534-1.34464109 8.97185845-1.6538391 8.10238812-2.97209654 18.58469634-3.54605694 24.83830137-10.08827971 2.58152968-2.7003911 4.10727397-6.3047698 4.34966895-10.02486634.13672374-2.09449257.15989726-8.93341584-3.52515525-7.92667079"/>
        <path fill="rgb(137,197,204)" fill-rule="evenodd" d="M73.56103516 106.61569214c-.06674195-11.4681015 10.90823364-18.40515137 20.83252716-21.01482391 11.92879486-3.14243317 23.04003143 5.2156372 24.44620514 17.23918151 1.48403167 12.68869019-8.079216 22.90380097-20.69116974 23.46387482-11.09409333.49249268-24.51665497-7.45084381-24.58756256-19.68823242zm26.64630127-15.50063324c.64514923.87714386 1.2272644 2.2768631-.07276917 3.03921509-1.25006103.72859192-1.87460327-.14743042-2.50306702-1.02894593-.39722442-.5571823-.7960205-1.11655426-1.35532379-1.27430725-1.45019531-.4082489-3.7805252 1.11691284-4.98832702 2.00608826-.49027253.3610611-1.18801117 1.1381836-2.00362397 2.04659271-2.59618377 2.89156342-6.38668823 7.11334229-8.48193359 3.48055268-8.35590363 14.42908477 12.47615814 25.22740936 24.3219986 19.76691436 13.01007843-5.99695587 10.47766876-27.92178344-4.91695404-28.03610992z"/>
        <path fill="rgb(137,197,204)" fill-rule="evenodd" d="M89.28894749 102.77658861c0 2.63234901 4.1568653 2.63234901 4.1568653 0 0-2.60226237-4.1568653-2.71381435-4.1568653 0"/>
        <path fill="rgb(137,197,204)" fill-rule="evenodd" d="M96.60264817 102.28256609c0 3.22436139 5.09446576 3.22436139 5.09446576 0 0-3.18779456-5.09446576-3.32387871-5.09446576 0"/>
        <path fill="rgb(137,197,204)" fill-rule="evenodd" d="M91.36890959 109.79607797c-4.1661347 2.4504406 7.74783333 7.31938366 8.2182557 2.3439802.203-2.14679703-1.87612785-1.56774505-3.2619041-1.72558416-1.32598859-.15135891-3.69849315-1.35065842-4.9563516-.61839604"/>
        <path fill="rgb(193,222,226)" fill-rule="evenodd" d="M89.56188516 127.18129208c.1812169 6.25894554.09408447 12.51418812 1.28103196 18.68611386.22571005 1.1719901.38236302 5.42392574 1.30884019 6.29458663 2.27888356 2.14216832 2.31642465-1.9635 2.40494748-3.5367995.31608676-5.63545792-.27530137-11.44634406-.406-17.09337376-.02827168-1.2155.29384019-3.73305693-.27993607-4.90967575-.9102557-1.86768564-4.3974064-2.42220544-4.30888356.55914852"/>
        <path fill="rgb(193,222,226)" fill-rule="evenodd" d="M85.1061742 122.10646386c-9.13314612 10.25074753-21.70987671 9.49580446-34.38022831 10.39331188-6.6943653.47444307-13.46334931 1.44832426-18.85026484 5.77848515-2.50552055 2.01441584-4.6657557 4.53752723-6.11734475 7.41288366-.63449087 1.25715842-3.64426712 8.51035149.8759589 6.78939604 1.60314384-.61006435 3.18126028-5.4067995 4.21804338-6.8255 1.97484704-2.70224257 4.50168722-4.9328193 7.5327831-6.38299505 5.84714156-2.79713118 12.82885846-2.74945544 19.16866896-3.10447772 6.6271621-.3707599 13.74050457-.7174505 19.83235845-3.59928713 2.86563698-1.35575 5.5542283-3.0466188 7.86045662-5.22535396.82405023-.77901237 2.59126255-2.10189851 2.72288813-3.29286633.15062785-1.36130446-1.15774886-3.85340347-2.86331964-1.94359654"/>
        <path fill="rgb(137,197,204)" fill-rule="evenodd" d="M38.99996142 153.56949158c-8.5792991.28651733-17.14747489.6336708-25.71472375 1.17615594-1.75562557.11108911-7.6092557-.2434703-6.11827169 3.35396535 1.19482649 2.88368812 8.33365982.97619555 10.6950411.83640842 8.9273653-.52998763 17.89134475-.7142104 26.79970776-1.51729208 2.00126484-.18005693 11.04681507-.10831188 7.31170776-3.65483169-1.7769452-1.68809158-10.5184589-.27818564-12.97346118-.19440594"/>
        <path fill="rgb(137,197,204)" fill-rule="evenodd" d="M1.71956758 157.70732946C-.98478174 161.25894084.25778219 169.89102748.4621726 174.16055223c.19790183 4.13760643-.6057557 11.70277475 4.79506393 12.34431435-1.71484018-.22495544 1.30188813.10414604 1.7927032.1305297 1.09657077.05878466 2.19823972.07776238 3.2962009.08979704 2.53657307.02777227 5.07453654-.00601733 7.61064613-.05693317 5.74517808-.11479208 11.50518721-.28188862 17.24294977-.59941832 2.41189954-.1337698 15.49613014-.02221782 16.01428995-2.5277401.66183562-3.20168069-11.883379-1.39046534-14.12889269-1.28817079-5.46941324.25087624-10.94716895.30364356-16.4212169.37538861-2.71315525.0356411-5.42909132.06248763-8.14224657.00925743-1.12020776-.02175495-5.55700913.4383391-6.23784703-.30919802-.58072831-.63644802-.12745434-6.48621535-.13996804-7.38094554-.03985845-2.91701486-.03661415-5.84097278.0672032-8.75659901.06998402-1.96303713 1.13133105-5.69794555.26649543-7.54202476-.84119863-1.7927005-3.29295662-2.40461633-4.7579863-.9414802"/>
        <path fill="rgb(137,197,204)" fill-rule="evenodd" d="M45.89496301 157.87322252c.15665297 6.49732426.20531736 13.12610397 1.73986758 19.480401.5107443 2.1148589 1.22634247 6.4755693 3.35089041 7.5702599 2.22975571 1.1493094 4.15501142-.49110644 4.3005411-2.7003911.18353425-2.77769059-1.303742-6.42419059-1.60870548-9.2740891-.35640867-3.32526733-.5635799-6.65377475-.6854726-9.99524258-.0922306-2.51292821.6715685-6.2807005-1.7241096-7.90121287-2.15189268-1.4557302-5.44299542.01018317-5.3730114 2.82027475"/>
        <path fill="rgb(137,197,204)" fill-rule="evenodd" d="M62.96805091 156.28677748c-2.66819863 2.65780693-1.4756895 11.07280693-1.14199086 14.48787128.24424885 2.50135644 2.98196803 14.80586386 7.08414383 8.38954208 1.8144863-2.83832673-.49081507-10.34332178-.4745936-13.65285148.01065981-2.10791585.75684703-4.77312872.39673059-6.7981906-.47598402-2.67632178-3.44404795-4.84348515-5.86428996-2.42637128"/>
        <path fill="rgb(137,197,204)" fill-rule="evenodd" d="M81.44276428 154.09295654c8.014328-.82669067 16.03839112-1.44694519 24.09675598-1.52377319.38693238-.00302124.79343415-.00817871 1.21620942-.0135498 5.52331542-.07006836 13.82331085-.17536927 17.5399704 3.97201538 2.40309142 2.68095398 3.24613952 7.0976715 4.18374633 10.44284057.12594605.4493103.28961182.96173096.46652222 1.51564026.83476257 2.6135559 1.9644928 6.1506958.81913757 8.34028626-.62799072 1.20068359-1.63929748 2.22454834-3.17384338 1.79917907-.35855866-.09934997-.63962555-.22644043-.85980225-.37643432.58805084.63626098.84838867 1.5423584.46659851 2.42913818-.73834991 1.71398926-3.06965637 1.75038147-4.9072647 1.77908325-.44515992.00694275-.8613434.013443-1.21889497.04322815-6.11872863.51008606-12.26573944.85029602-18.40625763.9039917-2.92351532.0257721-5.84747314.00187683-8.77138519-.0220337-3.00978851-.02459716-6.01951599-.04920959-9.028656-.0196228-2.18442536.02148438-4.40905.22912598-6.63437653.43684388-2.80966187.26226807-5.62044525.52462768-8.3528595.41252136-2.04437256-.08424377-4.2273178-.7535553-3.70915222-3.39561462.45929718-2.34397888 2.81789398-2.36250305 4.7408371-2.55828858 5.79244995-.58970642 11.58815002-.79846191 17.41026306-.77763366 12.23097992.04258728 24.45222473-.02082825 36.68274689-.08470154.5027008.04141235.97628784.23358154 1.36629486.52641296-.44043732-.53451538-.43190766-1.24617004-.42281342-2.00396728.00411225-.34291077.00833893-.69526673-.02886963-1.0449524-.32164764-3.0258026-.52881622-5.9997406-1.10259246-9.02507019-.45883942-2.41989135-.80458832-6.53018188-3.04639435-8.05256652-1.92781067-1.3089447-5.70772553-1.24610901-8.6540451-1.1971283-.79508973.01322937-1.52947236.0254364-2.15037537.00939941-7.86138153-.20274353-15.76772309.35548401-23.59341431 1.0669098-3.56872559.32447814-7.18147278.57165527-10.70987701 1.212265-.5367508.09762574-1.35713196.3838501-2.29810334.71215821-2.50325012.87336731-5.85993194 2.04449463-7.00050354.75468445-3.77867126-4.2736969 12.82608032-6.02844238 15.08039856-6.26126099z"/>
        <path fill="rgb(193,222,226)" fill-rule="evenodd" d="M118.90892029 130.441391c-2.29464722-1.29835511-11.30358124-9.69345857-6.43621826-12.55446626 2.42697906-1.41991424 3.50286102.68534089 4.41947174 2.47895813.22361755.43756104.43774414.85657502.65970611 1.2013321 1.8158722 2.82073974 4.05490113 4.29452514 7.20510865 5.20822906 5.72895813 1.66170502 11.72950744 2.36249542 17.60353088 3.30536652 6.3170929 1.01322937 13.3011322 1.74409485 19.2094574 4.35423278 2.59913635 1.1479187 14.39445495 11.82589722 10.01698303 14.3703003-1.68943787.98191833-3.50759888-2.0219574-4.6994629-3.99111939-.34196471-.56497192-.63235473-1.04475403-.85337829-1.32080078-1.95677185-2.44395447-3.85562134-4.03392029-6.8445282-5.05316162-7.01322937-2.39164734-14.95573425-2.77444458-22.25352478-3.81498718-5.76651-.82159424-12.86270141-1.26223755-18.02714538-4.18388367z"/>
        <path fill="rgb(137,197,204)" fill-rule="evenodd" d="M187.09106445 150.68139648c-8.7600708.19441224-17.4946289 1.13728333-26.2384491 1.65986634-3.7457733.22402954-7.51193237.36427307-11.24658202.74151611-2.27267457.22947693-6.5018158.38676453-9.00132752 1.43338013-1.8690033-1.41366577-4.75341797-.21182251-4.7985382 2.30792236-.07693482 4.59030151-.03475953 9.09866333.5251007 13.66072083.1298523 1.05889892.79911804 6.4205017 2.25483704 9.21122741-.51780701 2.63560486 1.7288971 3.37438965 3.8201599 3.57632447 8.09925843.78175354 16.59274293.1749115 24.97119142-.42372132 4.26168823-.30448913 8.49362182-.6068573 12.62876892-.7232666 1.37509155-.03886413 2.76774597-.05448913 4.16871643-.07019043 4.57174682-.05126953 9.23188781-.10353088 13.65820312-.96803284 1.73893738-.33927917 4.71116638-.63182067 4.91557312-2.77722168.11050415-1.15576171-.54161072-2.21380615-1.63301086-2.36245727.07499695-.96342468-.04606629-2.01399231-.13508606-2.78656006-.02070618-.17971802-.03967285-.34437561-.05404663-.4894104-.32489014-3.28083801-1.25276184-6.53482056-2.02954102-9.73280334-.71513367-2.94477845-1.19065857-8.41036988-3.5775299-10.6136322-1.9505005-1.80026246-5.12564087-1.72067261-7.66946412-1.65690613-.19010925.004776-.37669372.00944519-.55897522.01324462zm9.87467957 25.5532074c-1.08265686-2.83485412-.9188385-7.29740906-1.4960785-10.23309326-.57330322-2.91468811-.79113769-6.37141418-1.96325683-9.10884094-1.11218262-2.59655762-2.10212707-2.4972992-4.4442749-2.26246643-.43560791.04368591-.91798401.09204101-1.45663452.12863159-3.5321045.23977661-7.05957031.57673645-10.58796692.86695862-7.75617981.63783264-15.5188446 1.04145813-23.28057861 1.58209228-4.02583313.28025818-7.87786866 1.42959595-11.81521607 1.8802948-.0251007.59501648-.0750885 1.19233704-.12269592 1.7611847-.0648346.77464294-.12524414 1.49649047-.11236572 2.0878601.06581115 3.02487183.3638153 6.02844238.62660217 9.040802.0419464.48112488.14544678 1.09942627.26023865 1.78526307.17750549 1.06048584.3820343 2.28240966.42784118 3.40821838.211792-.0016632.42243958-.00090027.629776-.00015259.26828003.00097656.53097535.00193787.78335572-.00242615 6.16877746-.10784912 12.33294677-.29484558 18.49755859-.53182983 6.28697205-.24116516 12.5739441-.51054382 18.8655548-.58276367 2.18719483-.02487183 4.40286256.04368591 6.6250763.11242676 2.85910035.0884552 5.72901917.17723083 8.56306458.06784057z"/>
      </g>
    </g>
    <g>
      <g transform="matrix(-1 0 0 1 427 244)">
        <path fill="rgb(204,158,116)" fill-rule="evenodd" d="M92.14334106 40.13393307c5.79481125 10.8011217 5.1062355 38.1990633-2.38304138 40.12952518-2.9867134.76986695-9.34929657-1.1159935-15.82492256-5.01914596L78 104H54l8.26227379-38.50987244c-4.60790944-5.40875053-7.72663903-12.03725052-7.2054975-19.464674 1.50155377-21.40047406 31.29175353-16.69264244 37.08656477-5.8915205z"/>
        <path fill="rgb(87,59,21)" fill-rule="evenodd" d="M88.16444397 28.273386c5.06624603.6117611 9.23757172 1.11545944 11.06256103-.04660797 1.30244446 8.16370583-2.89855957 14.74627876-17.66831207 13.4736309-3.25699615 1.82188035-5.57485962 5.23580933-8.36508178 9.71387482C72.51403045 51.14688873 71.77403259 51 71 51c-3.31149292 0-6 2.6885109-6 6 0 1.68101501.69280243 3.20149231 1.80820465 4.2912445-1.3884964 1.9598999-2.94462204 4.0072937-4.72781753 6.11994935-6.65335083-3.99173737-11.60194779-15.62579346-5.2492714-26.85695648 3.7917366-15.60656739 19.8581543-13.66650773 31.33332825-12.28085137z"/>
      </g>
      <g transform="matrix(-1 0 0 1 520.48963029 441.3969747)">
        <g transform="translate(65 42)">
          <path fill="rgb(197,207,214)" fill-rule="evenodd" d="M27.6226415 0h77.25455148L115 124H0L27.6226415 0z"/>
          <path fill="rgb(0,0,0)" fill-opacity=".1" fill-rule="evenodd" d="M27.6226415 0h23.7601596l14.22097248 124H0L27.6226415 0z"/>
        </g>
        <path fill="rgb(204,158,116)" fill-rule="evenodd" d="M212.32341003 66.56646729c-8.68144226 18.41159439-22.24684143 63.1057167-22.24684143 63.1057167l11.51657105 5.26159668s29.22111511-46.98135376 47.0792694-79.09739304c-.83213805 7.22999955-1.67939758 15.36973572-2.464859 23.92626572-1.8607483 20.27046204-.00100708 64.06414795 1 76.71472168.62910461 7.95050049 11.43222046 6.28494263 12.44067383-.0206604C260.65667725 150.1511116 279.97161865 50.40290833 280 29.23841476c.00949097-7.07369613-13.80987549-13.42826175-22.0466919-8.48229408-5.6578369-6.03693008-16.36566162-9.5164051-22.51725768.45588875-3.91073609 6.33966255-13.20281983 24.3377037-23.11264039 45.35445786z"/>
        <path fill="rgb(31,40,207)" fill-rule="evenodd" d="M190.89992237 113.12535469l39.52746167-93.63805378c9.46932164-15.23246624 36.01877245 3.09968393 32.78952956 11.93441739-7.33138107 20.05757995-44.61720191 84.99251957-46.80146526 90.96834273l-25.51552597-9.26470634z"/>
        <path fill="rgb(228,228,228)" fill-rule="evenodd" d="M191.60246668 124.22829544c-.634995-.98375116-1.9755046-1.21403046-2.90239546-.4985877 0 0-3.44819015 2.66156756-4.80065525 5.0041048-1.35246509 2.34253726-3.16666695 7.28731033-3.16666695 7.28731033l48.8453969 28.20091525s5.53809882-5.19521632 1.72571658-8.06548977c-3.81238224-2.87027346-6.29217702-4.84124634-6.29217702-4.84124634l-16.85947672-23.22856875c-.33093094-.45594844-.97300847-.54865139-1.41939522-.20493182l-3.50311877 2.69741531s-4.82048726-.42066754-7.19472521-1.79143505c-2.37423796-1.37076752-4.43250288-4.55948626-4.43250288-4.55948626z"/>
        <path fill="rgb(228,228,228)" fill-rule="evenodd" d="M247.4182776 150.35225237c-1.0417975-.5344558-2.31785241-.06362848-2.76284187 1.01940863 0 0-1.65543573 4.02908051-1.65543573 6.73400982C243 160.81060014 243.90124261 166 243.90124261 166h56.4018122s2.19852474-7.26823912-2.53823196-7.84777684c-4.7367567-.57953773-7.8698085-1.04655234-7.8698085-1.04655234l-26.2150217-11.68678736c-.51456887-.22939737-1.11697575.0113584-1.33169813.5322217l-1.68508143 4.08758988s-4.38499781 2.04593567-7.12653195 2.04593567c-2.74153414 0-6.11840355-1.73237834-6.11840355-1.73237834z"/>
        <path fill="rgb(43,68,255)" fill-rule="evenodd" d="M282.77037312 36.4330278c0 26.5669722-12.6167735 88.53726557-12.62475727 94.38708375L243 130.84096261s5.95991587-82.94322234 4.22668288-83.8367647c-1.73323298-.89354235-71.05084528 6.92083266-91.84032504 6.92083266C125.40782515 53.92503057 113.00630654 35.02039713 112 0h59.38635784c12.09159567 1.29386693 75.16246762 14.01525676 98.58573876 18.38841285C280 20.26063585 282.77037312 29.1145109 282.77037312 36.4330278z"/>
      </g>
      <g transform="matrix(-1 0 0 1 487 323)">
        <path fill="rgb(204,158,116)" fill-rule="evenodd" d="M198 77.61708832l36.2345581-15.91291428q9.5211792-9.48772812 18.38812256-14.42222214c1.76757813-.56274414 4.78741455-.73275375 1.56549073 3.97321701-3.22193909 4.70596695-6.39927674 9.8008461-5.11187744 11.45012665.56373596.72219849 1.59568786.77910996 2.70143127.8400917 1.4194336.07828141 2.96043396.16326905 3.78862 1.67089082.98223876 1.78804016-5.3040619 3.92690277-18.8588562 6.41659546l-27.13754273 20.80641174L198 77.61708832zM51.5082817 82L72 86.06584167q-30.91187286 57.60780335-33.15496826 61.06436158c-2.91384506 4.49014282-.94981003 12.21832275.38196945 17.45866394.2060318.81071472.3969345 1.56188965.55230331 2.23231506-3.41628265.79524231-4.59560394-1.19761658-5.83892059-3.29859924-1.40429306-2.37301636-2.89022636-4.88398743-7.7732277-3.67138672-1.88654899.46847534-3.70866775 1.10171509-5.48886489 1.72036743-6.1491251 2.13697815-11.79805756 4.10011292-17.87441301-1.50082397-.9633267-.88795472-1.66852749-3.66345215 1.61594152-5.08699036 8.18281079-3.54655457 20.27222347-10.18740845 22.23252201-12.76565552Q30.66217041 136.94424438 51.50828171 82z"/>
        <path fill="rgb(219,39,33)" fill-rule="evenodd" d="M127.6949953 5.33202834l8.6471231-1.48316788c18.8342622 18.27010313 26.52016873 62.16359952 39.07185676 67.97363505 11.86711317 5.49315351 28.68962585.17750532 48.68584888-6.99999848l6.12371776 13.68209256c-18.16849575 19.6559894-56.87433042 36.26226451-72.56344882 26.78205635-25.08363908-15.15688224-30.87434134-69.29295872-29.96509768-99.9546176z"/>
        <path fill="rgb(221,227,233)" fill-rule="evenodd" d="M90 114h76.5114507c3.4961831 0 2.83739407-5.0483629 2.33199964-7.59579448-5.8328626-29.40043923-28.60214608-61.09269004-28.60214608-102.94347522L118.1718001 0C99.91748497 29.35840682 93.6048263 65.50454992 90 114z"/>
        <path fill="rgb(255,65,51)" fill-rule="evenodd" d="M27 141.85882568Q42.49589157 45.75659943 116.7480545 0h8.73834229s29.71878815 101.30541992 16.38588715 135H73c1.08963013-16.43654633 4.58339691-33.81879425 9.36875916-50.76683044Q58.97270584 126.43515015 43.03744506 145L27 141.85882568z"/>
      </g>
    </g>
  </g>
</svg>
